<svg width="968" height="238" viewBox="0 0 968 238" fill="none" xmlns="http://www.w3.org/2000/svg">
<path d="M183.61 214.169C183.61 226.232 171.903 237.712 159.673 237.712H23.9839C11.7761 237.712 0.0472412 226.232 0.0472412 214.169V24.3257C0.0472412 12.2616 11.7298 0.780212 23.9839 0.780212H159.674C171.926 0.780212 183.611 12.2616 183.611 24.3257V214.169H183.61Z" fill="#F7FDFF"/>
<path d="M7.28998 137.703C7.28998 137.703 36.8032 126.657 62.8124 127.544C91.599 128.547 94.3097 131.052 123.348 136.655C140.498 139.956 159.902 139.205 176.343 133.919L176.367 209.206C176.367 221.526 167.735 230.181 155.391 230.181H28.2192C16.0128 230.181 7.29134 221.48 7.29134 209.206L7.28998 137.703Z" fill="#1C4FB9"/>
<path d="M6.56616 181.166C6.56616 181.166 37.4647 167.875 62.7404 165.846C89.6464 163.692 97.5595 166.211 126.76 172.148C143.879 175.628 164.481 172.121 176.545 166.207L176.519 171.808C164.443 177.707 143.906 180.454 126.772 177.153C97.735 171.559 88.2447 168.875 62.9867 170.966C38.7167 172.973 6.5893 187.363 6.5893 187.363L6.56616 181.166Z" fill="#F7FDFF"/>
<path d="M105.551 128.274C73.2784 112.108 41.528 104.319 7.28998 117.796V132.218C49.4982 117.433 74.8746 122.912 105.551 128.274Z" fill="#59CD8B"/>
<path d="M43.6957 94.5063C32.4922 94.5063 20.4395 96.3815 7.28998 100.986V112.395C10.0415 111.629 22.5433 106.179 42.0233 106.182C54.9456 106.182 70.9419 108.58 89.1876 116.336C92.6944 117.816 88.2078 115.539 105.745 123.781C121.881 131.372 136.262 133.672 147.768 133.672C165.475 133.672 176.368 128.226 176.368 128.226V115.836C176.368 115.836 161.445 121.759 147.708 121.759C146.348 121.759 145.005 121.702 143.685 121.576C141.297 121.347 129.657 122.804 108.772 112.944C89.3523 103.783 68.6135 94.5035 43.6957 94.5063Z" fill="#59CD8B"/>
<path d="M101.723 104.301C105.77 106.234 114.202 110.526 120.381 113.221C97.8546 92.2574 72.5422 76.9701 38.5614 77.3552C27.5946 77.479 17.311 78.8357 7.28998 81.771V95.5138C46.5766 81.8105 77.7718 92.8548 101.723 104.301Z" fill="#59CD8B"/>
<path d="M176.368 28.9779C176.368 16.7075 167.736 8.01872 155.403 8.01872C149.569 8.01872 28.2097 8.01872 28.2097 8.01872C16.0005 8.01872 7.28998 16.7021 7.28998 28.9725C7.28998 36.5114 7.28998 75.5435 7.28998 75.5435C7.28998 75.5435 37.1625 66.6588 69.7457 75.5884C88.9399 80.8466 98.897 87.7309 121.682 105.228C137.055 117.029 153.268 115.883 160.502 114.024C171.394 111.522 176.369 109.037 176.369 109.037V28.9779H176.368Z" fill="#B1E6FB"/>
<path d="M149.268 118.8C149.268 134.874 136.231 147.916 120.157 147.916C104.075 147.916 91.0415 134.875 91.0415 118.8C91.0415 102.72 104.075 89.6898 120.157 89.6898C136.231 89.6898 149.268 102.718 149.268 118.8Z" fill="#F7FDFF"/>
<path d="M966.8 171.375H934.312C934.312 176.65 935.757 180.704 938.647 183.537C941.2 186.006 944.482 187.241 948.494 187.241C953.067 187.241 956.882 185.908 959.94 183.243L963.307 189.008C962.073 190.242 960.179 191.309 957.626 192.206C954.428 193.385 950.865 193.974 946.937 193.974C941.27 193.974 936.458 192.052 932.503 188.208C928.098 183.972 925.896 178.277 925.896 171.123C925.896 163.688 928.154 157.727 932.671 153.238C936.711 149.226 941.494 147.22 947.021 147.22C953.446 147.22 958.482 149.029 962.129 152.649C965.664 156.127 967.431 160.742 967.431 166.494C967.431 168.261 967.221 169.888 966.8 171.375ZM947.4 153.953C943.837 153.953 940.849 155.103 938.436 157.404C936.136 159.592 934.831 162.314 934.522 165.568H959.478C959.478 162.342 958.468 159.648 956.448 157.488C954.231 155.131 951.215 153.953 947.4 153.953Z" fill="#F7FDFF"/>
<path d="M898.391 154.374H893.172V148.062H898.391V138.635L906.386 135.563V148.062H918.759V154.374H906.386V176.762C906.386 180.55 907.018 183.243 908.28 184.842C909.571 186.441 911.633 187.241 914.466 187.241C916.514 187.241 918.633 186.722 920.821 185.684L921.999 192.712C918.689 193.553 915.056 193.974 911.1 193.974C907.537 193.974 904.521 192.656 902.052 190.018C899.611 187.353 898.391 184.001 898.391 179.961V154.374Z" fill="#F7FDFF"/>
<path d="M856.836 148.062V176.805C856.836 183.762 859.852 187.241 865.884 187.241C868.521 187.241 870.934 186.484 873.122 184.969C875.311 183.454 876.756 181.7 877.457 179.708V148.062H885.453V193.133H877.457V186.904C876.559 188.672 874.75 190.299 872.028 191.786C869.335 193.245 866.698 193.974 864.117 193.974C859.179 193.974 855.392 192.558 852.754 189.724C850.145 186.89 848.841 182.865 848.841 177.646V148.062H856.836Z" fill="#F7FDFF"/>
<path d="M818.814 154.374H813.596V148.062H818.814V138.635L826.81 135.563V148.062H839.182V154.374H826.81V176.762C826.81 180.55 827.441 183.243 828.703 184.842C829.994 186.441 832.056 187.241 834.889 187.241C836.937 187.241 839.056 186.722 841.244 185.684L842.422 192.712C839.112 193.553 835.479 193.974 831.523 193.974C827.96 193.974 824.944 192.656 822.475 190.018C820.034 187.353 818.814 184.001 818.814 179.961V154.374Z" fill="#F7FDFF"/>
<path d="M800.486 131.018C801.861 131.018 803.025 131.509 803.979 132.491C804.961 133.444 805.452 134.595 805.452 135.941C805.452 137.316 804.961 138.494 803.979 139.476C803.025 140.43 801.861 140.907 800.486 140.907C799.139 140.907 797.975 140.43 796.993 139.476C796.039 138.494 795.562 137.316 795.562 135.941C795.562 134.567 796.039 133.402 796.993 132.448C797.947 131.495 799.111 131.018 800.486 131.018ZM796.109 193.132V154.794H789.923V148.061H804.105V193.132H796.109Z" fill="#F7FDFF"/>
<path d="M761.79 154.374H756.572V148.062H761.79V138.635L769.786 135.563V148.062H782.158V154.374H769.786V176.762C769.786 180.55 770.417 183.243 771.68 184.842C772.97 186.441 775.032 187.241 777.866 187.241C779.914 187.241 782.032 186.722 784.22 185.684L785.399 192.712C782.088 193.553 778.455 193.974 774.499 193.974C770.936 193.974 767.92 192.656 765.451 190.018C763.011 187.353 761.79 184.001 761.79 179.961V154.374Z" fill="#F7FDFF"/>
<path d="M721.909 190.439L724.729 182.864C729.189 185.782 732.78 187.241 735.502 187.241C740.44 187.241 742.908 185.165 742.908 181.012C742.908 178.038 740.524 175.485 735.754 173.353C732.079 171.67 729.596 170.393 728.306 169.524C727.043 168.654 725.935 167.672 724.981 166.578C724.055 165.456 723.354 164.277 722.877 163.043C722.428 161.781 722.204 160.434 722.204 159.003C722.204 155.3 723.55 152.41 726.244 150.334C728.937 148.258 732.458 147.22 736.806 147.22C740.089 147.22 744.227 148.258 749.221 150.334L746.948 157.741C743.778 155.216 740.594 153.953 737.396 153.953C735.488 153.953 733.875 154.402 732.556 155.3C731.265 156.198 730.62 157.334 730.62 158.708C730.62 161.598 732.261 163.786 735.544 165.273L741.267 167.883C744.774 169.482 747.327 171.305 748.926 173.353C750.525 175.401 751.325 177.968 751.325 181.054C751.325 185.094 749.908 188.265 747.075 190.565C744.241 192.838 740.313 193.974 735.291 193.974C730.55 193.974 726.089 192.796 721.909 190.439Z" fill="#F7FDFF"/>
<path d="M706.321 193.132V166.915C706.321 162.117 705.592 158.765 704.133 156.857C702.702 154.921 700.289 153.953 696.894 153.953C695.071 153.953 693.163 154.5 691.171 155.594C689.179 156.688 687.65 158.035 686.584 159.634V193.132H678.588V148.062H684.059L686.584 153.869C689.221 149.436 693.528 147.22 699.504 147.22C709.379 147.22 714.317 153.224 714.317 165.231V193.132H706.321Z" fill="#F7FDFF"/>
<path d="M657.569 193.136V131.484H665.986V193.136H657.569Z" fill="#F7FDFF"/>
<path d="M605.886 200.791C604.848 203.653 602.66 206.037 599.322 207.945C596.011 209.853 592.308 210.807 588.212 210.807V203.653C591.55 203.653 594.412 202.867 596.797 201.296C599.181 199.753 600.374 197.859 600.374 195.615C600.374 193.146 599.939 190.719 599.069 188.334C598.199 185.922 597.077 182.948 595.702 179.413L583.498 148.061H591.662L604.919 182.906L616.828 148.061H624.992L605.886 200.791Z" fill="#F7FDFF"/>
<path d="M580.532 155.762C578.792 154.555 577.039 153.952 575.271 153.952C572.438 153.952 569.955 155.257 567.823 157.866C565.719 160.475 564.667 163.617 564.667 167.293V193.131H556.671V148.061H564.667V155.257C567.584 149.898 571.919 147.219 577.67 147.219C579.101 147.219 581.163 147.472 583.856 147.977L580.532 155.762Z" fill="#F7FDFF"/>
<path d="M537.082 187.955C533.883 191.967 528.988 193.973 522.395 193.973C518.86 193.973 515.788 192.696 513.179 190.143C510.598 187.562 509.307 184.364 509.307 180.549C509.307 175.976 511.299 172.118 515.283 168.976C519.295 165.806 524.401 164.22 530.601 164.22C532.284 164.22 534.192 164.585 536.324 165.315C536.324 158.02 533.07 154.373 526.561 154.373C521.567 154.373 517.724 155.72 515.03 158.413L511.664 151.722C513.179 150.487 515.269 149.435 517.934 148.566C520.627 147.668 523.194 147.219 525.635 147.219C532.172 147.219 536.913 148.706 539.859 151.68C542.833 154.654 544.32 159.381 544.32 165.862V182.021C544.32 185.977 545.498 188.614 547.855 189.933V193.931C544.601 193.931 542.16 193.468 540.533 192.542C538.933 191.616 537.783 190.087 537.082 187.955ZM536.324 170.996C533.799 170.435 532.032 170.154 531.022 170.154C526.982 170.154 523.685 171.192 521.132 173.268C518.579 175.344 517.303 177.799 517.303 180.633C517.303 185.318 520.066 187.661 525.593 187.661C529.633 187.661 533.21 185.739 536.324 181.895V170.996Z" fill="#F7FDFF"/>
<path d="M493.082 193.131V166.914C493.082 162.116 492.352 158.764 490.893 156.856C489.463 154.92 487.05 153.952 483.655 153.952C481.832 153.952 479.924 154.499 477.932 155.594C475.94 156.688 474.411 158.034 473.345 159.633V193.131H465.349V148.061H470.82L473.345 153.868C475.982 149.435 480.289 147.219 486.264 147.219C496.14 147.219 501.077 153.223 501.077 165.23V193.131H493.082Z" fill="#F7FDFF"/>
<path d="M449.88 131.017C451.255 131.017 452.419 131.508 453.373 132.49C454.355 133.444 454.846 134.594 454.846 135.941C454.846 137.315 454.355 138.494 453.373 139.475C452.419 140.429 451.255 140.906 449.88 140.906C448.534 140.906 447.369 140.429 446.388 139.475C445.434 138.494 444.957 137.315 444.957 135.941C444.957 134.566 445.434 133.402 446.388 132.448C447.341 131.494 448.506 131.017 449.88 131.017ZM445.504 193.131V154.794H439.318V148.06H453.5V193.131H445.504Z" fill="#F7FDFF"/>
<path d="M433.487 155.762C431.748 154.555 429.995 153.952 428.227 153.952C425.393 153.952 422.911 155.257 420.778 157.866C418.674 160.475 417.622 163.617 417.622 167.293V193.131H409.626V148.061H417.622V155.257C420.54 149.898 424.874 147.219 430.626 147.219C432.057 147.219 434.119 147.472 436.812 147.977L433.487 155.762Z" fill="#F7FDFF"/>
<path d="M400.768 171.375H368.28C368.28 176.649 369.725 180.703 372.615 183.536C375.168 186.005 378.45 187.24 382.462 187.24C387.035 187.24 390.851 185.907 393.909 183.242L397.275 189.007C396.041 190.242 394.147 191.308 391.594 192.206C388.396 193.384 384.833 193.973 380.905 193.973C375.238 193.973 370.426 192.051 366.471 188.208C362.066 183.971 359.864 178.276 359.864 171.122C359.864 163.687 362.122 157.726 366.639 153.237C370.679 149.225 375.462 147.219 380.989 147.219C387.414 147.219 392.45 149.029 396.097 152.648C399.632 156.127 401.399 160.742 401.399 166.493C401.399 168.26 401.189 169.888 400.768 171.375ZM381.368 153.952C377.805 153.952 374.817 155.103 372.404 157.403C370.104 159.591 368.799 162.313 368.491 165.567H393.446C393.446 162.341 392.436 159.647 390.416 157.487C388.199 155.131 385.183 153.952 381.368 153.952Z" fill="#F7FDFF"/>
<path d="M332.363 154.373H327.145V148.061H332.363V138.635L340.359 135.562V148.061H352.731V154.373H340.359V176.762C340.359 180.549 340.99 183.242 342.253 184.841C343.543 186.441 345.605 187.24 348.439 187.24C350.487 187.24 352.605 186.721 354.794 185.683L355.972 192.711C352.661 193.553 349.028 193.973 345.072 193.973C341.509 193.973 338.493 192.655 336.025 190.018C333.584 187.352 332.363 184 332.363 179.96V154.373Z" fill="#F7FDFF"/>
<path d="M321.273 171.375H288.785C288.785 176.649 290.23 180.703 293.12 183.536C295.673 186.005 298.955 187.24 302.967 187.24C307.54 187.24 311.356 185.907 314.414 183.242L317.78 189.007C316.546 190.242 314.652 191.308 312.099 192.206C308.901 193.384 305.338 193.973 301.41 193.973C295.743 193.973 290.931 192.051 286.976 188.208C282.571 183.971 280.369 178.276 280.369 171.122C280.369 163.687 282.627 157.726 287.144 153.237C291.184 149.225 295.967 147.219 301.494 147.219C307.919 147.219 312.955 149.029 316.602 152.648C320.137 156.127 321.904 160.742 321.904 166.493C321.904 168.26 321.694 169.888 321.273 171.375ZM301.873 153.952C298.31 153.952 295.322 155.103 292.909 157.403C290.609 159.591 289.304 162.313 288.996 165.567H313.951C313.951 162.341 312.941 159.647 310.921 157.487C308.704 155.131 305.688 153.952 301.873 153.952Z" fill="#F7FDFF"/>
<path d="M255.603 193.976H251.353L228.376 131.483H237.718L253.583 176.891L268.859 131.483H277.907L255.603 193.976Z" fill="#F7FDFF"/>
<path d="M613.48 98.8887V72.6711C613.48 67.8737 612.75 64.5211 611.292 62.6133C609.861 60.6775 607.448 59.7096 604.053 59.7096C602.23 59.7096 600.322 60.2567 598.33 61.3508C596.338 62.445 594.809 63.7916 593.743 65.3908V98.8887H585.747V53.818H591.218L593.743 59.6254C596.38 55.1927 600.687 52.9764 606.662 52.9764C616.538 52.9764 621.476 58.9802 621.476 70.9878V98.8887H613.48Z" fill="#F7FDFF"/>
<path d="M566.791 93.7125C563.593 97.7244 558.697 99.7303 552.104 99.7303C548.569 99.7303 545.497 98.4538 542.888 95.9008C540.307 93.3197 539.016 90.1214 539.016 86.3059C539.016 81.7329 541.008 77.8753 544.992 74.7332C549.004 71.5629 554.11 69.9778 560.31 69.9778C561.994 69.9778 563.901 70.3425 566.033 71.072C566.033 63.7776 562.779 60.1304 556.27 60.1304C551.276 60.1304 547.433 61.4771 544.74 64.1704L541.373 57.4792C542.888 56.2448 544.978 55.1927 547.643 54.323C550.337 53.4252 552.904 52.9764 555.344 52.9764C561.881 52.9764 566.623 54.4633 569.568 57.4371C572.542 60.411 574.029 65.1383 574.029 71.619V87.7788C574.029 91.7346 575.208 94.3718 577.564 95.6904V99.6882C574.31 99.6882 571.869 99.2253 570.242 98.2995C568.643 97.3737 567.492 95.8447 566.791 93.7125ZM566.033 76.7531C563.509 76.192 561.741 75.9115 560.731 75.9115C556.691 75.9115 553.395 76.9495 550.842 79.0256C548.289 81.1017 547.012 83.5565 547.012 86.3901C547.012 91.0753 549.776 93.4179 555.302 93.4179C559.342 93.4179 562.919 91.4961 566.033 87.6526V76.7531Z" fill="#F7FDFF"/>
<path d="M525.865 36.7765C527.24 36.7765 528.405 37.2674 529.358 38.2493C530.34 39.2032 530.831 40.3535 530.831 41.7001C530.831 43.0748 530.34 44.2532 529.358 45.2351C528.405 46.189 527.24 46.6659 525.865 46.6659C524.519 46.6659 523.355 46.189 522.373 45.2351C521.419 44.2532 520.942 43.0748 520.942 41.7001C520.942 40.3254 521.419 39.1611 522.373 38.2073C523.327 37.2534 524.491 36.7765 525.865 36.7765ZM521.489 98.8906V60.5532H515.303V53.82H529.485V98.8906H521.489Z" fill="#F7FDFF"/>
<path d="M473.579 111.219L477.913 104.822C482.571 107.936 486.863 109.493 490.791 109.493C494.41 109.493 497.258 108.862 499.334 107.6C501.438 106.365 502.49 104.822 502.49 102.97C502.49 99.3233 499.853 97.4997 494.578 97.4997C493.681 97.4997 492.053 97.7242 489.697 98.1731C487.34 98.6219 485.502 98.8464 484.184 98.8464C477.787 98.8464 474.589 96.4336 474.589 91.6081C474.589 90.1212 475.332 88.7746 476.819 87.5682C478.334 86.3618 480.2 85.4921 482.416 84.9591C476.076 81.9852 472.906 76.8231 472.906 69.4726C472.906 64.7593 474.547 60.8316 477.829 57.6894C481.112 54.5472 485.166 52.9762 489.991 52.9762C494.424 52.9762 497.889 53.8879 500.386 55.7115L504.384 50.9141L509.602 55.8378L504.804 59.4569C506.852 62.1221 507.876 65.601 507.876 69.8934C507.876 74.4384 506.46 78.2539 503.626 81.3399C500.792 84.426 497.075 86.1935 492.474 86.6424L485.867 87.3157C485.082 87.3999 484.03 87.7085 482.711 88.2415C481.392 88.7465 480.733 89.4198 480.733 90.2615C480.733 91.4118 482.108 91.9869 484.857 91.9869C486.064 91.9869 487.943 91.7765 490.496 91.3556C493.049 90.9068 494.943 90.6823 496.177 90.6823C500.61 90.6823 504.061 91.7484 506.53 93.8806C509.027 95.9848 510.275 98.9165 510.275 102.676C510.275 106.828 508.409 110.181 504.678 112.734C500.975 115.287 496.276 116.563 490.58 116.563C487.663 116.563 484.591 116.044 481.364 115.006C478.138 113.968 475.543 112.706 473.579 111.219ZM490.538 59.4148C487.761 59.4148 485.488 60.3968 483.721 62.3606C481.981 64.3245 481.112 66.7092 481.112 69.5147C481.112 72.6569 481.953 75.266 483.637 77.3421C485.348 79.3901 487.649 80.4141 490.538 80.4141C493.372 80.4141 495.588 79.4182 497.187 77.4263C498.787 75.4063 499.586 72.7691 499.586 69.5147C499.586 66.7092 498.716 64.3245 496.977 62.3606C495.266 60.3968 493.119 59.4148 490.538 59.4148Z" fill="#F7FDFF"/>
<path d="M466.988 77.1319H434.501C434.501 82.4063 435.945 86.4602 438.835 89.2938C441.388 91.7627 444.671 92.9971 448.682 92.9971C453.255 92.9971 457.071 91.6645 460.129 88.9992L463.496 94.7646C462.261 95.999 460.367 97.0651 457.814 97.9629C454.616 99.1412 451.053 99.7303 447.125 99.7303C441.458 99.7303 436.647 97.8086 432.691 93.965C428.286 89.7287 426.084 84.0335 426.084 76.8794C426.084 69.4448 428.342 63.483 432.859 58.9942C436.899 54.9823 441.683 52.9764 447.21 52.9764C453.634 52.9764 458.67 54.7859 462.317 58.4051C465.852 61.8839 467.62 66.499 467.62 72.2503C467.62 74.0178 467.409 75.645 466.988 77.1319ZM447.588 59.7096C444.025 59.7096 441.037 60.8599 438.625 63.1604C436.324 65.3487 435.02 68.0701 434.711 71.3245H459.666C459.666 68.0981 458.656 65.4048 456.636 63.2446C454.42 60.8879 451.404 59.7096 447.588 59.7096Z" fill="#F7FDFF"/>
<path d="M407.422 99.7319H405.318L392.104 69.0536L378.932 99.7319H376.828L360.71 53.6934H369.253L378.89 83.2776L390.884 53.6934H392.988L405.36 83.2776L415.713 53.6934H423.582L407.422 99.7319Z" fill="#F7FDFF"/>
<path d="M357.612 61.5192C355.872 60.3128 354.119 59.7096 352.351 59.7096C349.518 59.7096 347.035 61.0142 344.903 63.6233C342.799 66.2324 341.746 69.3746 341.746 73.0499V98.8887H333.751V53.818H341.746V61.0142C344.664 55.6556 348.999 52.9764 354.75 52.9764C356.181 52.9764 358.243 53.2289 360.936 53.7339L357.612 61.5192Z" fill="#F7FDFF"/>
<path d="M284.749 76.2482C284.749 69.2905 286.614 63.6794 290.346 59.415C294.105 55.1226 299.043 52.9764 305.159 52.9764C311.611 52.9764 316.619 55.0384 320.182 59.1625C323.745 63.2586 325.527 68.9538 325.527 76.2482C325.527 83.5144 323.703 89.2517 320.056 93.46C316.409 97.6402 311.443 99.7303 305.159 99.7303C298.734 99.7303 293.726 97.6122 290.135 93.3758C286.544 89.1395 284.749 83.4303 284.749 76.2482ZM293.165 76.2482C293.165 87.5544 297.163 93.2075 305.159 93.2075C308.89 93.2075 311.808 91.6925 313.912 88.6626C316.044 85.6326 317.11 81.4945 317.11 76.2482C317.11 65.0822 313.126 59.4992 305.159 59.4992C301.512 59.4992 298.594 60.9861 296.405 63.96C294.245 66.9338 293.165 71.0299 293.165 76.2482Z" fill="#F7FDFF"/>
<path d="M273.991 99.7315L242.134 54.6608V98.8898H234.138V37.2385H237.505L268.52 79.8684V37.2385H276.516V99.7315H273.991Z" fill="#F7FDFF"/>
</svg>
