<svg width="1120" height="238" viewBox="0 0 1120 238" fill="none" xmlns="http://www.w3.org/2000/svg">
<path d="M183.61 214.237C183.61 226.3 171.903 237.78 159.674 237.78H23.984C11.7761 237.78 0.0472412 226.3 0.0472412 214.237V24.3933C0.0472412 12.329 11.7298 0.847656 23.984 0.847656H159.675C171.926 0.847656 183.612 12.329 183.612 24.3933V214.237H183.61Z" fill="#F7FDFF"/>
<path d="M7.289 137.769C7.289 137.769 36.8024 126.723 62.8116 127.61C91.5983 128.613 94.309 131.118 123.347 136.721C140.498 140.022 159.902 139.271 176.343 133.986L176.366 209.272C176.366 221.593 167.735 230.248 155.391 230.248H28.2183C16.0118 230.248 7.29036 221.547 7.29036 209.272L7.289 137.769Z" fill="#1C4FB9"/>
<path d="M6.56635 181.233C6.56635 181.233 37.465 167.942 62.7408 165.913C89.6468 163.759 97.56 166.278 126.76 172.215C143.879 175.695 164.482 172.188 176.546 166.274L176.52 171.875C164.444 177.774 143.907 180.521 126.773 177.22C97.7355 171.626 88.2452 168.942 62.9871 171.032C38.717 173.04 6.58948 187.43 6.58948 187.43L6.56635 181.233Z" fill="#F7FDFF"/>
<path d="M105.551 128.344C73.2776 112.177 41.5271 104.388 7.289 117.866V132.287C49.4974 117.502 74.8739 122.981 105.551 128.344Z" fill="#59CD8B"/>
<path d="M43.6949 94.575C32.4913 94.575 20.4386 96.4502 7.289 101.055V112.464C10.0406 111.698 22.5424 106.248 42.0224 106.251C54.9447 106.251 70.9411 108.649 89.1869 116.405C92.6938 117.884 88.2072 115.608 105.744 123.85C121.881 131.441 136.262 133.741 147.767 133.741C165.474 133.741 176.368 128.295 176.368 128.295V115.904C176.368 115.904 161.445 121.828 147.707 121.828C146.348 121.828 145.005 121.771 143.685 121.644C141.297 121.416 129.656 122.873 108.772 113.013C89.3516 103.852 68.6128 94.5723 43.6949 94.575Z" fill="#59CD8B"/>
<path d="M101.723 104.369C105.77 106.303 114.201 110.595 120.381 113.289C97.854 92.326 72.5414 77.0386 38.5605 77.4237C27.5937 77.5475 17.31 78.9042 7.289 81.8395V95.5824C46.5757 81.879 77.771 92.9234 101.723 104.369Z" fill="#59CD8B"/>
<path d="M176.368 29.0449C176.368 16.7744 167.736 8.08563 155.403 8.08563C149.569 8.08563 28.2088 8.08563 28.2088 8.08563C15.9996 8.08563 7.289 16.769 7.289 29.0395C7.289 36.5784 7.289 75.6106 7.289 75.6106C7.289 75.6106 37.1616 66.7259 69.745 75.6555C88.9393 80.9137 98.8963 87.7981 121.682 105.295C137.055 117.096 153.268 115.951 160.502 114.092C171.394 111.589 176.369 109.104 176.369 109.104V29.0449H176.368Z" fill="#B1E6FB"/>
<path d="M149.267 118.868C149.267 134.942 136.231 147.984 120.157 147.984C104.075 147.984 91.0406 134.944 91.0406 118.868C91.0406 102.788 104.075 89.7579 120.157 89.7579C136.231 89.7579 149.267 102.786 149.267 118.868Z" fill="#F7FDFF"/>
<g clip-path="url(#clip0_2226_2241)">
<path d="M259.634 165.508L229.823 90.0838H240.229L264.677 153.927H261.996L286.125 90.0838H296.53L266.923 165.508H259.634Z" fill="#F7FDFF"/>
<path d="M318.935 166.371C314.79 166.371 311.153 165.669 308.051 164.265C304.936 162.861 302.37 160.887 300.327 158.372C298.284 155.842 296.748 152.947 295.719 149.657C294.675 146.381 294.168 142.901 294.168 139.216C294.168 135.531 294.661 132.022 295.675 128.673C296.675 125.325 298.153 122.342 300.124 119.753C302.095 117.151 304.573 115.103 307.573 113.583C310.573 112.062 314.08 111.316 318.08 111.316C322.08 111.316 325.674 112.018 328.644 113.422C331.615 114.825 334.035 116.756 335.934 119.212C337.832 121.669 339.238 124.403 340.166 127.43C341.093 130.457 341.557 133.601 341.557 136.847C341.557 137.14 341.542 137.812 341.499 138.851C341.455 139.904 341.368 140.81 341.223 141.614H303.153C303.37 146.805 304.863 150.856 307.66 153.737C310.442 156.617 314.239 158.065 319.022 158.065C322.094 158.065 324.775 157.568 327.065 156.544C329.355 155.535 331.499 153.912 333.499 151.675L339.832 157.305C337.905 159.396 335.861 161.106 333.717 162.437C331.572 163.768 329.297 164.762 326.905 165.42C324.514 166.064 321.848 166.4 318.92 166.4L318.935 166.371ZM332.557 136.935C332.702 136.365 332.789 135.78 332.833 135.21C332.862 134.639 332.891 134.054 332.891 133.484C332.891 131.759 332.586 130.019 331.978 128.293C331.369 126.568 330.47 124.988 329.297 123.585C328.123 122.181 326.616 121.055 324.79 120.236C322.964 119.402 320.804 118.993 318.297 118.993C315.225 118.993 312.573 119.709 310.356 121.157C308.138 122.605 306.428 124.506 305.211 126.889C303.994 129.273 303.283 131.905 303.066 134.786H335.557L332.557 136.95V136.935Z" fill="#F7FDFF"/>
<path d="M345.209 119.3V112.164H377.598V119.3H345.209ZM369.439 166.371C366.932 166.371 364.671 165.888 362.628 164.908C360.585 163.929 359.005 162.364 357.86 160.2C356.715 158.036 356.15 155.257 356.15 151.865V97.8777L365.367 92.6866V149.496C365.367 152.45 365.831 154.746 366.758 156.369C367.686 157.992 369.367 158.811 371.802 158.811C372.512 158.811 373.367 158.723 374.381 158.533C375.381 158.357 376.453 158.123 377.598 157.831V164.967C376.236 165.479 374.859 165.83 373.468 166.049C372.077 166.268 370.729 166.371 369.454 166.371H369.439Z" fill="#F7FDFF"/>
<path d="M408.06 166.371C403.916 166.371 400.278 165.669 397.177 164.265C394.061 162.861 391.496 160.887 389.453 158.372C387.409 155.842 385.873 152.947 384.844 149.657C383.801 146.381 383.294 142.901 383.294 139.216C383.294 135.531 383.786 132.022 384.801 128.673C385.801 125.325 387.279 122.342 389.25 119.753C391.221 117.151 393.699 115.103 396.699 113.583C399.699 112.062 403.206 111.316 407.205 111.316C411.205 111.316 414.799 112.018 417.77 113.422C420.741 114.825 423.161 116.756 425.059 119.212C426.958 121.669 428.364 124.403 429.291 127.43C430.219 130.457 430.682 133.601 430.682 136.847C430.682 137.14 430.668 137.812 430.624 138.851C430.581 139.904 430.494 140.81 430.349 141.614H392.279C392.496 146.805 393.989 150.856 396.786 153.737C399.568 156.617 403.365 158.065 408.147 158.065C411.22 158.065 413.901 157.568 416.19 156.544C418.48 155.535 420.625 153.912 422.625 151.675L428.958 157.305C427.03 159.396 424.987 161.106 422.842 162.437C420.697 163.768 418.422 164.762 416.031 165.42C413.64 166.064 410.973 166.4 408.046 166.4L408.06 166.371ZM421.683 136.935C421.828 136.365 421.915 135.78 421.958 135.21C421.987 134.639 422.016 134.054 422.016 133.484C422.016 131.759 421.712 130.019 421.103 128.293C420.495 126.568 419.596 124.988 418.422 123.585C417.248 122.181 415.741 121.055 413.915 120.236C412.089 119.402 409.93 118.993 407.423 118.993C404.35 118.993 401.698 119.709 399.481 121.157C397.264 122.605 395.554 124.506 394.336 126.889C393.119 129.273 392.409 131.905 392.192 134.786H424.683L421.683 136.95V136.935Z" fill="#F7FDFF"/>
<path d="M441.522 165.508V112.164H450.638V126.451L448.276 126.992C448.768 123.818 449.971 121.055 451.87 118.715C453.768 116.375 455.985 114.548 458.522 113.246C461.058 111.945 463.55 111.301 465.97 111.301C467.608 111.301 469.188 111.477 470.695 111.842C472.202 112.208 473.738 112.822 475.303 113.685L470.796 121.903C469.941 121.464 468.927 121.113 467.738 120.821C466.55 120.528 465.434 120.382 464.362 120.382C462.652 120.382 460.942 120.704 459.275 121.362C457.594 122.005 456.072 123.029 454.71 124.389C453.348 125.763 452.319 127.606 451.594 129.902C451.305 130.91 451.073 132.227 450.899 133.85C450.725 135.473 450.623 137.695 450.623 140.503V165.493H441.508L441.522 165.508Z" fill="#F7FDFF"/>
<path d="M482.057 96.2985C482.057 93.3154 484.462 90.8881 487.419 90.8881C490.375 90.8881 492.781 93.3154 492.781 96.2985C492.781 99.2815 490.375 101.709 487.419 101.709C484.462 101.709 482.057 99.2815 482.057 96.2985ZM482.912 165.493V112.164H491.926V165.508H482.912V165.493Z" fill="#F7FDFF"/>
<path d="M505.113 165.508V112.164H514.229V123.526L512.084 124.286C513.084 121.552 514.446 119.227 516.156 117.311C517.866 115.396 519.938 113.919 522.373 112.881C524.808 111.842 527.489 111.316 530.416 111.316C536.213 111.316 540.749 113.027 544.039 116.463C547.328 119.885 548.966 124.959 548.966 131.671V165.537H539.85V134.99C539.85 129.58 538.865 125.602 536.894 123.029C534.923 120.47 531.938 119.183 527.938 119.183C525.011 119.183 522.518 119.87 520.489 121.245C518.446 122.619 516.895 124.754 515.823 127.679C514.75 130.603 514.214 134.332 514.214 138.88V165.493H505.099L505.113 165.508Z" fill="#F7FDFF"/>
<path d="M578.138 166.371C572.066 166.371 567.371 164.821 564.096 161.721C560.806 158.621 559.168 154.658 559.168 149.818C559.168 146.718 559.792 144.217 561.038 142.302C562.284 140.386 563.922 138.895 565.922 137.812C567.921 136.73 570.037 135.955 572.255 135.487C574.472 135.019 576.544 134.727 578.472 134.625C580.399 134.522 581.935 134.464 583.08 134.464H595.848V132.08C595.848 127.971 594.703 124.798 592.413 122.561C590.123 120.324 586.877 119.212 582.66 119.212C579.805 119.212 577.08 119.797 574.515 120.938C571.936 122.093 569.588 124.111 567.443 126.992L560.791 121.362C564.154 117.618 567.675 115.001 571.356 113.524C575.037 112.047 579.124 111.301 583.631 111.301C588.138 111.301 592.239 112.223 595.326 114.065C598.398 115.908 600.514 118.598 601.659 122.122C603.441 118.949 605.789 116.405 608.687 114.489C611.586 112.574 614.991 111.623 618.933 111.623C623.15 111.623 626.715 112.296 629.599 113.626C632.498 114.957 634.817 116.785 636.57 119.095C638.324 121.406 639.613 124.023 640.425 126.948C641.236 129.872 641.657 132.914 641.657 136.087C641.657 137.023 641.642 138.003 641.599 139.011C641.555 140.02 641.468 140.883 641.323 141.614H604.325C604.543 146.659 605.876 150.651 608.34 153.576C610.803 156.5 614.397 157.963 619.122 157.963C622.266 157.963 624.976 157.48 627.266 156.5C629.556 155.521 631.701 153.927 633.701 151.689L640.135 157.319C637.99 159.703 635.845 161.56 633.701 162.89C631.556 164.221 629.281 165.142 626.889 165.654C624.498 166.151 621.832 166.415 618.904 166.415C613.977 166.415 609.803 165.172 606.412 162.686C603.021 160.2 600.572 156.749 599.065 152.347H597.992C595.92 157.188 593.253 160.741 590.007 163.007C586.747 165.274 582.805 166.415 578.153 166.415L578.138 166.371ZM579.211 158.474C582.138 158.474 584.805 157.875 587.196 156.69C589.587 155.506 591.558 153.678 593.094 151.221C594.63 148.765 595.543 145.665 595.833 141.921V141.059H583.718C578.211 141.059 574.283 141.863 571.921 143.501C569.559 145.124 568.385 147.303 568.385 150.052C568.385 152.581 569.327 154.614 571.226 156.164C573.124 157.714 575.776 158.489 579.211 158.489V158.474ZM604.195 134.888H633.251C633.324 133.952 633.15 132.621 632.715 130.881C632.28 129.156 631.541 127.401 630.469 125.632C629.396 123.862 627.933 122.342 626.078 121.084C624.223 119.826 621.817 119.198 618.89 119.198C615.673 119.198 612.992 119.943 610.847 121.42C608.702 122.897 607.079 124.827 605.963 127.211C604.847 129.594 604.267 132.153 604.195 134.888Z" fill="#F7FDFF"/>
<path d="M652.453 165.508V112.164H661.569V126.451L659.207 126.992C659.699 123.818 660.902 121.055 662.801 118.715C664.699 116.375 666.916 114.548 669.452 113.246C671.989 111.945 674.481 111.301 676.901 111.301C678.539 111.301 680.119 111.477 681.626 111.842C683.133 112.208 684.669 112.822 686.234 113.685L681.727 121.903C680.872 121.464 679.858 121.113 678.669 120.821C677.496 120.528 676.365 120.382 675.293 120.382C673.583 120.382 671.873 120.704 670.206 121.362C668.525 122.005 667.003 123.029 665.641 124.389C664.279 125.749 663.25 127.606 662.525 129.902C662.235 130.91 662.004 132.227 661.83 133.85C661.656 135.473 661.569 137.695 661.569 140.503V165.493H652.453V165.508Z" fill="#F7FDFF"/>
<path d="M692.987 96.2985C692.987 93.3154 695.393 90.8881 698.349 90.8881C701.306 90.8881 703.711 93.3154 703.711 96.2985C703.711 99.2815 701.306 101.709 698.349 101.709C695.393 101.709 692.987 99.2815 692.987 96.2985ZM693.842 165.493V112.164H702.856V165.508H693.842V165.493Z" fill="#F7FDFF"/>
<path d="M716.044 165.508V112.164H725.16V123.526L723.015 124.286C724.015 121.552 725.377 119.227 727.087 117.311C728.797 115.396 730.869 113.919 733.304 112.881C735.739 111.842 738.42 111.316 741.347 111.316C747.144 111.316 751.68 113.027 754.97 116.463C758.259 119.885 759.897 124.959 759.897 131.671V165.537H750.781V134.99C750.781 129.58 749.796 125.602 747.825 123.029C745.854 120.47 742.869 119.183 738.869 119.183C735.942 119.183 733.449 119.87 731.42 121.245C729.377 122.619 727.826 124.754 726.754 127.679C725.681 130.603 725.145 134.332 725.145 138.88V165.493H716.03L716.044 165.508Z" fill="#F7FDFF"/>
<path d="M790.04 166.371C786.461 166.371 783.243 165.83 780.388 164.748C777.534 163.665 775.084 162.218 773.041 160.419C770.998 158.621 769.375 156.705 768.157 154.687L774.49 149.277C775.852 152.026 777.867 154.278 780.548 156.032C783.229 157.802 786.432 158.679 790.142 158.679C793.504 158.679 796.185 157.963 798.185 156.515C800.185 155.067 801.184 153.122 801.184 150.666C801.184 148.648 800.576 147.054 799.358 145.899C798.141 144.744 796.533 143.808 794.533 143.091C792.533 142.375 790.344 141.717 787.997 141.146C785.997 140.649 783.968 140.035 781.939 139.304C779.896 138.587 778.055 137.681 776.418 136.599C774.766 135.517 773.447 134.113 772.447 132.373C771.447 130.647 770.94 128.512 770.94 125.983C770.94 121.581 772.635 118.028 776.041 115.323C779.432 112.617 783.881 111.258 789.388 111.258C793.388 111.258 797.054 112.106 800.373 113.802C803.692 115.498 806.286 118.042 808.155 121.435L802.358 125.763C800.924 123.234 799.054 121.42 796.721 120.294C794.402 119.183 791.837 118.613 789.055 118.613C786.272 118.613 783.939 119.198 782.084 120.338C780.229 121.493 779.302 123.087 779.302 125.105C779.302 126.626 779.736 127.854 780.591 128.79C781.446 129.726 782.722 130.516 784.403 131.174C786.084 131.817 788.142 132.431 790.562 133.016C792.779 133.528 795.025 134.142 797.315 134.859C799.605 135.575 801.706 136.526 803.648 137.666C805.59 138.807 807.141 140.357 808.315 142.258C809.488 144.173 810.083 146.645 810.083 149.671C810.083 152.991 809.257 155.915 807.619 158.431C805.967 160.96 803.648 162.905 800.648 164.28C797.648 165.654 794.112 166.341 790.026 166.341L790.04 166.371Z" fill="#F7FDFF"/>
<path d="M814.169 119.3V112.164H846.559V119.3H814.169ZM838.4 166.371C835.893 166.371 833.632 165.888 831.589 164.908C829.545 163.929 827.966 162.364 826.821 160.2C825.676 158.036 825.111 155.257 825.111 151.865V97.8777L834.328 92.6866V149.496C834.328 152.45 834.792 154.746 835.719 156.369C836.646 157.992 838.328 158.811 840.762 158.811C841.472 158.811 842.327 158.723 843.342 158.533C844.342 158.357 845.414 158.123 846.559 157.831V164.967C845.197 165.479 843.82 165.83 842.429 166.049C841.038 166.268 839.69 166.371 838.4 166.371Z" fill="#F7FDFF"/>
<path d="M854.819 96.2985C854.819 93.3154 857.225 90.8881 860.181 90.8881C863.138 90.8881 865.543 93.3154 865.543 96.2985C865.543 99.2815 863.138 101.709 860.181 101.709C857.225 101.709 854.819 99.2815 854.819 96.2985ZM855.674 165.493V112.164H864.688V165.508H855.674V165.493Z" fill="#F7FDFF"/>
<path d="M871.224 119.3V112.164H903.614V119.3H871.224ZM895.455 166.371C892.948 166.371 890.687 165.888 888.644 164.908C886.6 163.929 885.021 162.364 883.876 160.2C882.731 158.036 882.166 155.257 882.166 151.865V97.8777L891.383 92.6866V149.496C891.383 152.45 891.846 154.746 892.774 156.369C893.701 157.992 895.383 158.811 897.817 158.811C898.527 158.811 899.382 158.723 900.397 158.533C901.397 158.357 902.469 158.123 903.614 157.831V164.967C902.252 165.479 900.875 165.83 899.484 166.049C898.093 166.268 896.745 166.371 895.455 166.371Z" fill="#F7FDFF"/>
<path d="M930.627 166.371C926.83 166.371 923.555 165.596 920.758 164.046C917.961 162.496 915.845 160.2 914.381 157.173C912.918 154.146 912.179 150.388 912.179 145.913V112.164H921.193V142.682C921.193 146.221 921.642 149.16 922.54 151.499C923.439 153.839 924.772 155.579 926.555 156.69C928.337 157.816 930.555 158.372 933.207 158.372C936.134 158.372 938.627 157.67 940.655 156.266C942.699 154.863 944.249 152.713 945.322 149.832C946.394 146.952 946.93 143.237 946.93 138.69V112.164H955.944V165.508H946.93V154.146H949.177C947.67 158.109 945.278 161.15 941.989 163.241C938.699 165.332 934.917 166.385 930.627 166.385V166.371Z" fill="#F7FDFF"/>
<path d="M962.698 119.3V112.164H995.087V119.3H962.698ZM986.928 166.371C984.421 166.371 982.16 165.888 980.117 164.908C978.074 163.929 976.494 162.364 975.349 160.2C974.204 158.036 973.639 155.257 973.639 151.865V97.8777L982.856 92.6866V149.496C982.856 152.45 983.32 154.746 984.247 156.369C985.175 157.992 986.856 158.811 989.291 158.811C990.001 158.811 990.856 158.723 991.87 158.533C992.87 158.357 993.942 158.123 995.087 157.831V164.967C993.725 165.479 992.348 165.83 990.957 166.049C989.566 166.268 988.218 166.371 986.928 166.371Z" fill="#F7FDFF"/>
<path d="M997.652 119.3V112.164H1030.04V119.3H997.652ZM1021.88 166.371C1019.38 166.371 1017.12 165.888 1015.07 164.908C1013.03 163.929 1011.45 162.364 1010.3 160.2C1009.16 158.036 1008.59 155.257 1008.59 151.865V97.8777L1017.81 92.6866V149.496C1017.81 152.45 1018.27 154.746 1019.2 156.369C1020.13 157.992 1021.81 158.811 1024.25 158.811C1024.96 158.811 1025.81 158.723 1026.82 158.533C1027.82 158.357 1028.9 158.123 1030.04 157.831V164.967C1028.68 165.479 1027.3 165.83 1025.91 166.049C1024.52 166.268 1023.17 166.371 1021.88 166.371Z" fill="#F7FDFF"/>
<path d="M1060.5 166.371C1056.36 166.371 1052.74 165.669 1049.62 164.265C1046.5 162.861 1043.94 160.887 1041.9 158.372C1039.85 155.842 1038.32 152.947 1037.29 149.657C1036.24 146.381 1035.74 142.901 1035.74 139.216C1035.74 135.531 1036.23 132.022 1037.24 128.673C1038.24 125.325 1039.72 122.342 1041.69 119.753C1043.66 117.151 1046.14 115.103 1049.14 113.583C1052.14 112.062 1055.65 111.316 1059.65 111.316C1063.65 111.316 1067.24 112.018 1070.21 113.422C1073.18 114.825 1075.6 116.756 1077.5 119.212C1079.4 121.669 1080.81 124.403 1081.73 127.43C1082.66 130.457 1083.13 133.601 1083.13 136.847C1083.13 137.14 1083.11 137.812 1083.07 138.851C1083.02 139.904 1082.94 140.81 1082.81 141.614H1044.74C1044.95 146.805 1046.45 150.856 1049.24 153.737C1052.03 156.617 1055.82 158.065 1060.61 158.065C1063.68 158.065 1066.36 157.568 1068.65 156.544C1070.94 155.535 1073.08 153.912 1075.08 151.675L1081.42 157.305C1079.49 159.396 1077.45 161.106 1075.3 162.437C1073.16 163.768 1070.88 164.762 1068.49 165.42C1066.1 166.064 1063.43 166.4 1060.5 166.4V166.371ZM1074.13 136.935C1074.27 136.365 1074.36 135.78 1074.39 135.21C1074.42 134.639 1074.45 134.054 1074.45 133.484C1074.45 131.759 1074.14 130.019 1073.53 128.293C1072.92 126.568 1072.03 124.988 1070.85 123.585C1069.68 122.181 1068.17 121.055 1066.34 120.236C1064.52 119.402 1062.36 118.993 1059.85 118.993C1056.78 118.993 1054.13 119.709 1051.91 121.157C1049.69 122.605 1047.98 124.506 1046.77 126.889C1045.55 129.273 1044.84 131.905 1044.62 134.786H1077.11L1074.11 136.95L1074.13 136.935Z" fill="#F7FDFF"/>
<path d="M1086.78 119.3V112.164H1119.17V119.3H1086.78ZM1111.01 166.371C1108.5 166.371 1106.24 165.888 1104.2 164.908C1102.15 163.929 1100.57 162.364 1099.43 160.2C1098.28 158.036 1097.72 155.257 1097.72 151.865V97.8777L1106.94 92.6866V149.496C1106.94 152.45 1107.4 154.746 1108.33 156.369C1109.26 157.992 1110.94 158.811 1113.37 158.811C1114.08 158.811 1114.94 158.723 1115.95 158.533C1116.95 158.357 1118.02 158.123 1119.17 157.831V164.967C1117.81 165.479 1116.43 165.83 1115.04 166.049C1113.65 166.268 1112.3 166.371 1111.01 166.371Z" fill="#F7FDFF"/>
</g>
<defs>
<clipPath id="clip0_2226_2241">
<rect width="889.344" height="76.2869" fill="white" transform="translate(229.823 90.0838)"/>
</clipPath>
</defs>
</svg>
