<svg width="300" height="64" viewBox="0 0 300 64" fill="none" xmlns="http://www.w3.org/2000/svg">
<path d="M49.2073 57.4103C49.2073 60.6439 46.069 63.7214 42.7906 63.7214H6.41666C3.14413 63.7214 0 60.6439 0 57.4103V6.51924C0 3.28521 3.13172 0.207428 6.41666 0.207428H42.791C46.0752 0.207428 49.2077 3.28521 49.2077 6.51924V57.4103H49.2073Z" fill="#FDFEFF"/>
<path d="M1.94141 36.9116C1.94141 36.9116 9.85298 33.9506 16.8252 34.1884C24.542 34.4573 25.2687 35.1288 33.0529 36.6307C37.6504 37.5157 42.8519 37.3143 47.2593 35.8974L47.2655 56.0793C47.2655 59.3821 44.9517 61.7022 41.6426 61.7022H7.55188C4.27971 61.7022 1.94177 59.3697 1.94177 56.0793L1.94141 36.9116Z" fill="#1C4FB9"/>
<path d="M1.7478 48.5629C1.7478 48.5629 10.0307 45 16.8064 44.4561C24.019 43.8786 26.1402 44.5538 33.9679 46.1454C38.557 47.0782 44.0799 46.1381 47.3138 44.5527L47.3068 46.0542C44.0697 47.6356 38.5643 48.3721 33.9712 47.4871C26.1873 45.9875 23.6433 45.2681 16.8724 45.8284C10.3663 46.3665 1.754 50.2241 1.754 50.2241L1.7478 48.5629Z" fill="#F7FDFF"/>
<path d="M28.2822 34.385C19.6308 30.0513 11.1195 27.9632 1.94141 31.5761V35.4421C13.2561 31.4787 20.0587 32.9473 28.2822 34.385Z" fill="#59CD8B"/>
<path d="M11.7006 25.3327C8.69733 25.3327 5.46638 25.8354 1.94141 27.0698V30.1282C2.67901 29.9229 6.03034 28.4619 11.2523 28.4626C14.7164 28.4626 19.0045 29.1054 23.8956 31.1847C24.8357 31.5812 23.6329 30.9709 28.334 33.1804C32.6597 35.2152 36.5148 35.8317 39.5991 35.8317C44.3457 35.8317 47.2659 34.3718 47.2659 34.3718V31.0504C47.2659 31.0504 43.2656 32.6384 39.583 32.6384C39.2186 32.6384 38.8586 32.623 38.5047 32.5891C37.8645 32.5278 34.7441 32.9185 29.1457 30.2752C23.9397 27.8195 18.3803 25.332 11.7006 25.3327Z" fill="#59CD8B"/>
<path d="M27.256 27.9582C28.3409 28.4766 30.6012 29.6271 32.2577 30.3494C26.2189 24.7298 19.4335 20.6318 10.3243 20.735C7.38444 20.7682 4.62772 21.1319 1.94141 21.9187V25.6028C12.4729 21.9293 20.8354 24.89 27.256 27.9582Z" fill="#59CD8B"/>
<path d="M47.2659 7.76624C47.2659 4.47692 44.952 2.14774 41.6459 2.14774C40.0821 2.14774 7.54933 2.14774 7.54933 2.14774C4.27643 2.14774 1.94141 4.47546 1.94141 7.76478C1.94141 9.78572 1.94141 20.249 1.94141 20.249C1.94141 20.249 9.94928 17.8673 18.6838 20.261C23.8292 21.6706 26.4984 23.5161 32.6064 28.2065C36.7275 31.37 41.0736 31.0628 43.0128 30.5645C45.9326 29.8937 47.2662 29.2276 47.2662 29.2276V7.76624H47.2659Z" fill="#B1E6FB"/>
<path d="M40.001 31.845C40.001 36.1539 36.5063 39.6501 32.1974 39.6501C27.8863 39.6501 24.3923 36.1543 24.3923 31.845C24.3923 27.5343 27.8863 24.0414 32.1974 24.0414C36.5063 24.0414 40.001 27.5339 40.001 31.845Z" fill="#F7FDFF"/>
<g clip-path="url(#clip0_351_15632)">
<path d="M69.5868 44.3476L61.5957 24.1288H64.385L70.9387 41.243H70.22L76.6883 24.1288H79.4776L71.5409 44.3476H69.5868Z" fill="#091A3E"/>
<path d="M85.4834 44.5789C84.3724 44.5789 83.3973 44.3907 82.5659 44.0144C81.7307 43.6381 81.0431 43.1089 80.4953 42.4347C79.9475 41.7566 79.5357 40.9804 79.2599 40.0985C78.9802 39.2204 78.8442 38.2875 78.8442 37.2997C78.8442 36.3119 78.9763 35.3711 79.2483 34.4734C79.5163 33.5758 79.9126 32.7761 80.4409 32.0823C80.9692 31.3846 81.6335 30.8358 82.4377 30.4281C83.2419 30.0204 84.182 29.8205 85.2542 29.8205C86.3264 29.8205 87.2899 30.0087 88.0863 30.385C88.8826 30.7613 89.5314 31.2787 90.0403 31.9373C90.5492 32.5958 90.9261 33.3288 91.1747 34.1402C91.4233 34.9517 91.5476 35.7944 91.5476 36.6646C91.5476 36.743 91.5438 36.9234 91.5321 37.2017C91.5204 37.4839 91.4971 37.7269 91.4583 37.9425H81.2528C81.3111 39.3341 81.7112 40.4199 82.461 41.1921C83.2069 41.9643 84.2247 42.3524 85.5067 42.3524C86.3303 42.3524 87.049 42.2191 87.6628 41.9447C88.2766 41.6743 88.8516 41.2391 89.3877 40.6394L91.0853 42.1486C90.5687 42.7091 90.0209 43.1677 89.4459 43.5244C88.871 43.8812 88.2611 44.1477 87.6201 44.3241C86.9791 44.4966 86.2643 44.5867 85.4795 44.5867L85.4834 44.5789ZM89.1352 36.6882C89.174 36.5353 89.1973 36.3785 89.209 36.2256C89.2167 36.0727 89.2245 35.9159 89.2245 35.7631C89.2245 35.3005 89.1429 34.8341 88.9798 34.3715C88.8166 33.909 88.5757 33.4856 88.2611 33.1093C87.9464 32.733 87.5424 32.4312 87.0529 32.2117C86.5634 31.9882 85.9846 31.8785 85.3125 31.8785C84.4889 31.8785 83.778 32.0705 83.1836 32.4586C82.5892 32.8467 82.1308 33.3563 81.8045 33.9952C81.4782 34.6341 81.2878 35.3397 81.2295 36.1119H89.9393L89.1352 36.6921V36.6882Z" fill="#091A3E"/>
<path d="M92.5269 31.9607V30.0478H101.209V31.9607H92.5269ZM99.0223 44.5788C98.3502 44.5788 97.7442 44.4494 97.1964 44.1868C96.6487 43.9242 96.2252 43.5048 95.9183 42.9246C95.6114 42.3445 95.4599 41.5997 95.4599 40.6903V26.2181L97.9307 24.8265V40.0553C97.9307 40.8471 98.055 41.4625 98.3036 41.8976C98.5522 42.3327 99.0029 42.5522 99.6555 42.5522C99.8459 42.5522 100.075 42.5287 100.347 42.4777C100.615 42.4307 100.903 42.368 101.209 42.2896V44.2025C100.844 44.3397 100.475 44.4338 100.102 44.4926C99.7293 44.5514 99.368 44.5788 99.0262 44.5788H99.0223Z" fill="#091A3E"/>
<path d="M109.375 44.5789C108.264 44.5789 107.289 44.3907 106.458 44.0144C105.623 43.6381 104.935 43.1089 104.387 42.4347C103.839 41.7566 103.428 40.9804 103.152 40.0985C102.872 39.2204 102.736 38.2875 102.736 37.2997C102.736 36.3119 102.868 35.3711 103.14 34.4734C103.408 33.5758 103.804 32.7761 104.333 32.0823C104.861 31.3846 105.525 30.8358 106.33 30.4281C107.134 30.0204 108.074 29.8205 109.146 29.8205C110.218 29.8205 111.182 30.0087 111.978 30.385C112.774 30.7613 113.423 31.2787 113.932 31.9373C114.441 32.5958 114.818 33.3288 115.067 34.1402C115.315 34.9517 115.439 35.7944 115.439 36.6646C115.439 36.743 115.436 36.9234 115.424 37.2017C115.412 37.4839 115.389 37.7269 115.35 37.9425H105.145C105.203 39.3341 105.603 40.4199 106.353 41.1921C107.099 41.9643 108.117 42.3524 109.399 42.3524C110.222 42.3524 110.941 42.2191 111.555 41.9447C112.168 41.6743 112.743 41.2391 113.28 40.6394L114.977 42.1486C114.461 42.7091 113.913 43.1677 113.338 43.5244C112.763 43.8812 112.153 44.1477 111.512 44.3241C110.871 44.4966 110.156 44.5867 109.371 44.5867L109.375 44.5789ZM113.027 36.6882C113.066 36.5353 113.089 36.3785 113.101 36.2256C113.109 36.0727 113.116 35.9159 113.116 35.7631C113.116 35.3005 113.035 34.8341 112.872 34.3715C112.708 33.909 112.468 33.4856 112.153 33.1093C111.838 32.733 111.434 32.4312 110.945 32.2117C110.455 31.9882 109.876 31.8785 109.204 31.8785C108.381 31.8785 107.67 32.0705 107.075 32.4586C106.481 32.8467 106.023 33.3563 105.696 33.9952C105.37 34.6341 105.18 35.3397 105.121 36.1119H113.831L113.027 36.6921V36.6882Z" fill="#091A3E"/>
<path d="M118.345 44.3476V30.0478H120.789V33.8776L120.156 34.0226C120.288 33.172 120.61 32.4311 121.119 31.804C121.628 31.1768 122.222 30.6868 122.902 30.3379C123.582 29.989 124.25 29.8166 124.899 29.8166C125.338 29.8166 125.762 29.8636 126.166 29.9616C126.57 30.0596 126.981 30.2242 127.401 30.4555L126.193 32.6585C125.964 32.5409 125.692 32.4468 125.373 32.3684C125.055 32.29 124.755 32.2508 124.468 32.2508C124.01 32.2508 123.551 32.3371 123.104 32.5135C122.654 32.6859 122.246 32.9603 121.881 33.3249C121.515 33.6933 121.24 34.1872 121.045 34.8027C120.968 35.0731 120.906 35.4259 120.859 35.861C120.812 36.2961 120.785 36.892 120.785 37.6446V44.3437H118.342L118.345 44.3476Z" fill="#091A3E"/>
<path d="M129.211 25.7947C129.211 24.995 129.856 24.3443 130.649 24.3443C131.441 24.3443 132.086 24.995 132.086 25.7947C132.086 26.5943 131.441 27.245 130.649 27.245C129.856 27.245 129.211 26.5943 129.211 25.7947ZM129.44 44.3436V30.0478H131.857V44.3475H129.44V44.3436Z" fill="#091A3E"/>
<path d="M135.392 44.3476V30.0479H137.836V33.0936L137.261 33.2975C137.529 32.5644 137.894 31.9412 138.352 31.4277C138.811 30.9142 139.366 30.5183 140.019 30.24C140.672 29.9616 141.39 29.8205 142.175 29.8205C143.729 29.8205 144.945 30.2792 145.827 31.2003C146.709 32.1176 147.148 33.4778 147.148 35.277V44.3555H144.704V36.1668C144.704 34.7165 144.44 33.6503 143.912 32.9604C143.383 32.2744 142.583 31.9294 141.511 31.9294C140.726 31.9294 140.058 32.1137 139.514 32.4821C138.966 32.8506 138.55 33.4229 138.263 34.2069C137.975 34.9909 137.832 35.9904 137.832 37.2095V44.3437H135.388L135.392 44.3476Z" fill="#091A3E"/>
<path d="M154.968 44.5789C153.34 44.5789 152.081 44.1634 151.203 43.3323C150.321 42.5013 149.882 41.439 149.882 40.1415C149.882 39.3105 150.049 38.6402 150.383 38.1267C150.718 37.6132 151.157 37.2134 151.693 36.9233C152.229 36.6333 152.796 36.4255 153.39 36.3001C153.985 36.1746 154.54 36.0962 155.057 36.0688C155.574 36.0413 155.985 36.0257 156.292 36.0257H159.715V35.3867C159.715 34.2852 159.408 33.4346 158.794 32.8349C158.18 32.2351 157.31 31.9372 156.18 31.9372C155.414 31.9372 154.684 32.094 153.996 32.3998C153.305 32.7094 152.676 33.2504 152.101 34.0226L150.317 32.5135C151.219 31.51 152.163 30.8083 153.149 30.4124C154.136 30.0165 155.232 29.8166 156.44 29.8166C157.648 29.8166 158.748 30.0635 159.575 30.5574C160.399 31.0513 160.966 31.7726 161.273 32.7173C161.75 31.8667 162.38 31.1846 163.157 30.6711C163.934 30.1576 164.847 29.9028 165.903 29.9028C167.034 29.9028 167.99 30.0831 168.763 30.4398C169.54 30.7965 170.161 31.2865 170.631 31.9059C171.101 32.5252 171.447 33.2269 171.665 34.0108C171.882 34.7948 171.995 35.6102 171.995 36.4608C171.995 36.7117 171.991 36.9743 171.979 37.2448C171.968 37.5152 171.944 37.7465 171.905 37.9425H161.987C162.046 39.2949 162.403 40.365 163.064 41.149C163.724 41.9329 164.687 42.3249 165.954 42.3249C166.797 42.3249 167.523 42.1956 168.137 41.9329C168.751 41.6703 169.326 41.243 169.862 40.6433L171.587 42.1524C171.012 42.7914 170.437 43.2892 169.862 43.6459C169.287 44.0026 168.677 44.2496 168.036 44.3868C167.395 44.5201 166.68 44.5906 165.896 44.5906C164.575 44.5906 163.456 44.2574 162.547 43.591C161.638 42.9247 160.981 41.9996 160.577 40.8197H160.29C159.734 42.1172 159.019 43.0697 158.149 43.6773C157.275 44.2849 156.218 44.5906 154.971 44.5906L154.968 44.5789ZM155.255 42.4621C156.04 42.4621 156.755 42.3014 157.396 41.9839C158.037 41.6664 158.565 41.1764 158.977 40.5179C159.389 39.8593 159.633 39.0283 159.711 38.0248V37.7935H156.463C154.987 37.7935 153.934 38.0091 153.301 38.4482C152.668 38.8833 152.353 39.4673 152.353 40.2043C152.353 40.8824 152.606 41.4273 153.115 41.8428C153.623 42.2583 154.334 42.466 155.255 42.466V42.4621ZM161.952 36.1393H169.742C169.761 35.8885 169.714 35.5318 169.598 35.0653C169.481 34.6028 169.283 34.1324 168.996 33.6581C168.708 33.1838 168.316 32.7761 167.819 32.439C167.321 32.1019 166.676 31.9333 165.892 31.9333C165.029 31.9333 164.311 32.1332 163.736 32.5291C163.161 32.925 162.726 33.4425 162.426 34.0814C162.127 34.7203 161.972 35.4063 161.952 36.1393Z" fill="#091A3E"/>
<path d="M174.889 44.3476V30.0478H177.332V33.8776L176.699 34.0226C176.831 33.172 177.154 32.4311 177.663 31.804C178.172 31.1768 178.766 30.6868 179.446 30.3379C180.126 29.989 180.794 29.8166 181.443 29.8166C181.882 29.8166 182.305 29.8636 182.709 29.9616C183.113 30.0596 183.525 30.2242 183.944 30.4555L182.736 32.6585C182.507 32.5409 182.235 32.4468 181.917 32.3684C181.602 32.29 181.299 32.2508 181.011 32.2508C180.553 32.2508 180.095 32.3371 179.648 32.5135C179.197 32.6859 178.789 32.9603 178.424 33.3249C178.059 33.6894 177.783 34.1872 177.589 34.8027C177.511 35.0731 177.449 35.4259 177.402 35.861C177.356 36.2961 177.332 36.892 177.332 37.6446V44.3437H174.889V44.3476Z" fill="#091A3E"/>
<path d="M185.755 25.7947C185.755 24.995 186.4 24.3443 187.192 24.3443C187.985 24.3443 188.63 24.995 188.63 25.7947C188.63 26.5943 187.985 27.245 187.192 27.245C186.4 27.245 185.755 26.5943 185.755 25.7947ZM185.984 44.3436V30.0478H188.4V44.3475H185.984V44.3436Z" fill="#091A3E"/>
<path d="M191.936 44.3476V30.0479H194.379V33.0936L193.804 33.2975C194.072 32.5644 194.438 31.9412 194.896 31.4277C195.354 30.9142 195.91 30.5183 196.563 30.24C197.215 29.9616 197.934 29.8205 198.719 29.8205C200.273 29.8205 201.489 30.2792 202.37 31.2003C203.252 32.1176 203.691 33.4778 203.691 35.277V44.3555H201.248V36.1668C201.248 34.7165 200.984 33.6503 200.455 32.9604C199.927 32.2744 199.127 31.9294 198.054 31.9294C197.27 31.9294 196.601 32.1137 196.058 32.4821C195.51 32.8506 195.094 33.4229 194.807 34.2069C194.519 34.9909 194.375 35.9904 194.375 37.2095V44.3437H191.932L191.936 44.3476Z" fill="#091A3E"/>
<path d="M211.772 44.5788C210.812 44.5788 209.95 44.4338 209.184 44.1437C208.419 43.8536 207.762 43.4655 207.215 42.9834C206.667 42.5013 206.232 41.9877 205.906 41.4468L207.603 39.9964C207.968 40.7334 208.508 41.337 209.227 41.8074C209.946 42.2817 210.804 42.5169 211.799 42.5169C212.7 42.5169 213.419 42.3249 213.955 41.9368C214.491 41.5487 214.759 41.0274 214.759 40.3688C214.759 39.8279 214.596 39.4006 214.27 39.091C213.943 38.7813 213.512 38.5304 212.976 38.3383C212.44 38.1463 211.853 37.9699 211.224 37.817C210.688 37.6837 210.144 37.5191 209.6 37.3231C209.052 37.131 208.559 36.888 208.12 36.5979C207.677 36.3078 207.323 35.9315 207.055 35.4651C206.787 35.0025 206.651 34.4302 206.651 33.7521C206.651 32.5722 207.106 31.6197 208.019 30.8945C208.928 30.1693 210.121 29.8047 211.597 29.8047C212.669 29.8047 213.652 30.0321 214.542 30.4868C215.431 30.9415 216.127 31.6236 216.628 32.533L215.074 33.6933C214.689 33.0151 214.188 32.5291 213.563 32.2272C212.941 31.9293 212.253 31.7765 211.507 31.7765C210.762 31.7765 210.136 31.9332 209.639 32.239C209.142 32.5487 208.893 32.9759 208.893 33.5169C208.893 33.9245 209.009 34.2538 209.239 34.5047C209.468 34.7556 209.81 34.9672 210.26 35.1436C210.711 35.3161 211.263 35.4807 211.911 35.6375C212.506 35.7747 213.108 35.9394 213.722 36.1314C214.336 36.3235 214.899 36.5783 215.419 36.8841C215.94 37.1898 216.356 37.6053 216.67 38.1149C216.985 38.6284 217.144 39.2909 217.144 40.1023C217.144 40.9921 216.923 41.7761 216.484 42.4503C216.041 43.1284 215.419 43.6498 214.615 44.0182C213.811 44.3867 212.863 44.571 211.768 44.571L211.772 44.5788Z" fill="#091A3E"/>
<path d="M218.24 31.9607V30.0478H226.922V31.9607H218.24ZM224.735 44.5788C224.063 44.5788 223.457 44.4494 222.909 44.1868C222.362 43.9242 221.938 43.5048 221.631 42.9246C221.324 42.3445 221.173 41.5997 221.173 40.6903V26.2181L223.644 24.8265V40.0553C223.644 40.8471 223.768 41.4625 224.016 41.8976C224.265 42.3327 224.716 42.5522 225.368 42.5522C225.559 42.5522 225.788 42.5287 226.06 42.4777C226.328 42.4307 226.615 42.368 226.922 42.2896V44.2025C226.557 44.3397 226.188 44.4338 225.815 44.4926C225.442 44.5514 225.081 44.5788 224.735 44.5788Z" fill="#091A3E"/>
<path d="M229.137 25.7947C229.137 24.995 229.782 24.3443 230.574 24.3443C231.367 24.3443 232.012 24.995 232.012 25.7947C232.012 26.5943 231.367 27.245 230.574 27.245C229.782 27.245 229.137 26.5943 229.137 25.7947ZM229.366 44.3436V30.0478H231.782V44.3475H229.366V44.3436Z" fill="#091A3E"/>
<path d="M233.534 31.9607V30.0478H242.217V31.9607H233.534ZM240.03 44.5788C239.358 44.5788 238.752 44.4494 238.204 44.1868C237.656 43.9242 237.233 43.5048 236.926 42.9246C236.619 42.3445 236.467 41.5997 236.467 40.6903V26.2181L238.938 24.8265V40.0553C238.938 40.8471 239.063 41.4625 239.311 41.8976C239.56 42.3327 240.01 42.5522 240.663 42.5522C240.853 42.5522 241.083 42.5287 241.355 42.4777C241.623 42.4307 241.91 42.368 242.217 42.2896V44.2025C241.852 44.3397 241.483 44.4338 241.11 44.4926C240.737 44.5514 240.376 44.5788 240.03 44.5788Z" fill="#091A3E"/>
<path d="M249.458 44.5788C248.44 44.5788 247.563 44.371 246.813 43.9555C246.063 43.54 245.496 42.9246 245.103 42.1131C244.711 41.3017 244.513 40.2943 244.513 39.0948V30.0477H246.929V38.2285C246.929 39.1772 247.05 39.9651 247.291 40.5922C247.531 41.2194 247.889 41.6859 248.367 41.9838C248.845 42.2856 249.439 42.4346 250.15 42.4346C250.935 42.4346 251.603 42.2464 252.147 41.8701C252.694 41.4938 253.11 40.9176 253.398 40.1454C253.685 39.3732 253.829 38.3775 253.829 37.1584V30.0477H256.245V44.3475H253.829V41.3017H254.431C254.027 42.364 253.386 43.1794 252.504 43.7399C251.622 44.3004 250.608 44.5827 249.458 44.5827V44.5788Z" fill="#091A3E"/>
<path d="M258.055 31.9607V30.0478H266.738V31.9607H258.055ZM264.551 44.5788C263.879 44.5788 263.273 44.4494 262.725 44.1868C262.177 43.9242 261.754 43.5048 261.447 42.9246C261.14 42.3445 260.988 41.5997 260.988 40.6903V26.2181L263.459 24.8265V40.0553C263.459 40.8471 263.584 41.4625 263.832 41.8976C264.081 42.3327 264.531 42.5522 265.184 42.5522C265.374 42.5522 265.604 42.5287 265.876 42.4777C266.144 42.4307 266.431 42.368 266.738 42.2896V44.2025C266.373 44.3397 266.004 44.4338 265.631 44.4926C265.258 44.5514 264.897 44.5788 264.551 44.5788Z" fill="#091A3E"/>
<path d="M267.426 31.9607V30.0478H276.108V31.9607H267.426ZM273.921 44.5788C273.249 44.5788 272.643 44.4494 272.095 44.1868C271.548 43.9242 271.124 43.5048 270.817 42.9246C270.51 42.3445 270.359 41.5997 270.359 40.6903V26.2181L272.83 24.8265V40.0553C272.83 40.8471 272.954 41.4625 273.203 41.8976C273.451 42.3327 273.902 42.5522 274.554 42.5522C274.745 42.5522 274.974 42.5287 275.246 42.4777C275.514 42.4307 275.801 42.368 276.108 42.2896V44.2025C275.743 44.3397 275.374 44.4338 275.001 44.4926C274.628 44.5514 274.267 44.5788 273.921 44.5788Z" fill="#091A3E"/>
<path d="M284.274 44.5789C283.163 44.5789 282.192 44.3907 281.357 44.0144C280.522 43.6381 279.834 43.1089 279.286 42.4347C278.739 41.7566 278.327 40.9804 278.051 40.0985C277.771 39.2204 277.635 38.2875 277.635 37.2997C277.635 36.3119 277.767 35.3711 278.039 34.4734C278.307 33.5758 278.704 32.7761 279.232 32.0823C279.76 31.3846 280.425 30.8358 281.229 30.4281C282.033 30.0204 282.973 29.8205 284.045 29.8205C285.117 29.8205 286.081 30.0087 286.877 30.385C287.674 30.7613 288.322 31.2787 288.831 31.9373C289.34 32.5958 289.717 33.3288 289.966 34.1402C290.214 34.9517 290.339 35.7944 290.339 36.6646C290.339 36.743 290.335 36.9234 290.323 37.2017C290.311 37.4839 290.288 37.7269 290.253 37.9425H280.048C280.106 39.3341 280.506 40.4199 281.256 41.1921C282.002 41.9643 283.02 42.3524 284.302 42.3524C285.125 42.3524 285.844 42.2191 286.458 41.9447C287.072 41.6743 287.646 41.2391 288.183 40.6394L289.88 42.1486C289.364 42.7091 288.816 43.1677 288.241 43.5244C287.666 43.8812 287.056 44.1477 286.415 44.3241C285.774 44.4966 285.059 44.5867 284.274 44.5867V44.5789ZM287.926 36.6882C287.965 36.5353 287.988 36.3785 287.996 36.2256C288.004 36.0727 288.012 35.9159 288.012 35.7631C288.012 35.3005 287.93 34.8341 287.767 34.3715C287.604 33.909 287.363 33.4856 287.048 33.1093C286.734 32.733 286.33 32.4312 285.84 32.2117C285.351 31.9882 284.772 31.8785 284.1 31.8785C283.276 31.8785 282.565 32.0705 281.971 32.4586C281.376 32.8467 280.918 33.3563 280.592 33.9952C280.265 34.6341 280.075 35.3397 280.017 36.1119H288.726L287.922 36.6921L287.926 36.6882Z" fill="#091A3E"/>
<path d="M291.317 31.9607V30.0478H300V31.9607H291.317ZM297.813 44.5788C297.141 44.5788 296.535 44.4494 295.987 44.1868C295.439 43.9242 295.016 43.5048 294.709 42.9246C294.402 42.3445 294.25 41.5997 294.25 40.6903V26.2181L296.721 24.8265V40.0553C296.721 40.8471 296.845 41.4625 297.094 41.8976C297.343 42.3327 297.793 42.5522 298.446 42.5522C298.636 42.5522 298.866 42.5287 299.138 42.4777C299.406 42.4307 299.693 42.368 300 42.2896V44.2025C299.635 44.3397 299.266 44.4338 298.893 44.4926C298.52 44.5514 298.159 44.5788 297.813 44.5788Z" fill="#091A3E"/>
</g>
<defs>
<clipPath id="clip0_351_15632">
<rect width="238.404" height="20.45" fill="white" transform="translate(61.5957 24.1288)"/>
</clipPath>
</defs>
</svg>
