<?xml version="1.0" encoding="UTF-8"?>
<svg id="svg" version="1.1" width="512" height="512" viewBox="0 0 512 512" xmlns="http://www.w3.org/2000/svg" xmlns:xlink="http://www.w3.org/1999/xlink"><path d="M247.990 33.250 C 243.035 36.622,240.767 40.296,240.319 45.676 C 239.775 52.195,242.921 57.751,248.714 60.500 L 252.928 62.500 252.964 74.613 L 253.000 86.726 242.250 87.935 C 209.145 91.660,180.800 105.120,157.961 127.960 C 136.310 149.613,123.150 175.284,117.888 206.129 C 115.191 221.940,115.635 247.215,118.861 261.500 C 127.937 301.699,150.985 334.465,184.794 355.234 C 201.695 365.617,225.209 373.327,244.054 374.664 L 253.000 375.299 253.000 385.150 C 253.000 394.951,253.012 395.000,255.464 395.000 C 257.894 395.000,257.931 394.868,258.214 385.250 L 258.500 375.500 267.000 374.806 C 314.316 370.940,358.174 340.750,380.030 297.000 C 388.238 280.569,393.324 263.175,394.598 247.181 C 395.086 241.056,395.836 237.798,397.145 236.115 C 399.539 233.037,399.542 226.969,397.150 223.885 C 395.943 222.329,395.070 218.951,394.635 214.163 C 391.837 183.308,378.219 153.781,356.213 130.854 C 332.181 105.816,303.312 91.621,268.750 87.848 L 258.000 86.674 258.000 74.850 L 258.000 63.027 261.250 61.637 C 273.703 56.309,274.723 38.766,262.929 32.752 C 258.119 30.299,252.027 30.502,247.990 33.250 M280.079 50.583 C 280.127 51.748,280.364 51.985,280.683 51.188 C 280.972 50.466,280.936 49.603,280.604 49.271 C 280.272 48.939,280.036 49.529,280.079 50.583 M252.762 130.750 L 252.500 168.500 246.000 168.205 C 236.363 167.768,225.804 166.182,213.849 163.374 C 203.289 160.894,203.194 160.845,202.587 157.612 C 200.492 146.444,184.131 145.156,180.910 155.905 C 179.485 160.664,180.299 164.390,183.455 167.545 C 188.477 172.567,196.841 171.868,200.716 166.102 C 202.026 164.154,203.000 163.377,203.000 164.281 C 203.000 167.067,221.109 171.373,240.750 173.257 C 252.498 174.384,253.000 174.526,253.000 176.716 C 253.000 178.486,253.563 179.000,255.500 179.000 C 257.500 179.000,258.000 178.500,258.000 176.500 C 258.000 174.229,258.389 173.998,262.250 173.980 C 268.831 173.950,286.632 171.380,296.807 168.992 C 304.324 167.227,306.000 166.495,306.000 164.976 C 306.000 163.954,305.609 162.876,305.131 162.581 C 304.654 162.286,298.916 163.145,292.381 164.491 C 280.329 166.973,260.287 169.295,258.809 168.382 C 258.364 168.107,258.000 150.977,258.000 130.316 L 258.000 92.750 261.116 93.373 C 273.015 95.753,293.940 116.006,307.393 138.165 C 311.243 144.506,312.382 145.713,314.096 145.265 C 316.896 144.532,316.280 142.670,309.826 132.346 C 302.488 120.609,290.620 106.553,282.618 100.121 C 278.937 97.162,276.084 94.583,276.278 94.389 C 276.471 94.195,281.234 95.152,286.862 96.514 C 303.642 100.578,320.539 108.396,334.000 118.325 C 340.879 123.400,350.000 131.185,350.000 131.982 C 350.000 132.312,345.785 136.154,340.634 140.519 C 332.565 147.356,331.421 148.701,332.374 150.228 C 332.983 151.202,333.819 152.000,334.233 152.000 C 334.647 152.000,339.306 148.367,344.586 143.927 C 349.867 139.487,354.283 136.000,354.399 136.177 C 354.516 136.355,356.670 138.975,359.186 142.000 C 374.852 160.832,384.234 182.173,388.932 209.658 L 390.667 219.817 387.808 220.388 C 377.657 222.419,377.357 237.044,387.414 239.568 C 390.555 240.356,390.649 241.838,388.395 255.074 C 385.133 274.243,375.821 296.641,364.522 312.500 C 354.953 325.930,356.762 325.636,345.210 315.633 C 339.727 310.885,334.845 307.000,334.361 307.000 C 333.877 307.000,332.977 307.806,332.362 308.792 C 331.391 310.347,332.553 311.694,341.121 318.953 C 346.555 323.556,351.000 327.657,351.000 328.067 C 351.000 328.477,347.765 331.808,343.811 335.469 C 328.034 350.075,307.026 361.203,285.329 366.444 C 274.760 368.998,274.000 368.303,281.094 362.575 C 291.530 354.150,307.409 333.534,314.120 319.698 C 316.120 315.575,316.241 314.764,314.975 313.963 C 314.164 313.450,313.218 313.024,312.874 313.015 C 312.530 313.007,309.976 316.938,307.198 321.750 C 296.563 340.176,280.111 358.594,267.955 365.680 C 257.791 371.605,258.539 373.329,258.233 343.250 L 257.967 317.000 255.500 317.000 L 253.033 317.000 252.766 343.558 L 252.500 370.117 245.500 366.606 C 232.645 360.159,217.752 344.276,205.642 324.100 C 202.539 318.930,200.000 314.287,200.000 313.782 C 200.000 313.021,196.246 313.599,195.185 314.523 C 194.512 315.108,201.141 327.083,207.114 336.071 C 210.923 341.803,217.768 349.911,224.573 356.750 C 230.729 362.938,235.120 368.000,234.330 368.000 C 230.676 368.000,217.553 364.383,208.352 360.839 C 192.886 354.883,173.840 342.665,163.625 332.149 L 159.749 328.159 163.350 324.998 C 165.330 323.259,170.051 319.239,173.841 316.065 C 180.534 310.459,180.684 310.233,179.100 308.133 C 177.342 305.802,178.319 305.131,157.787 322.771 C 156.245 324.096,155.797 323.918,153.287 320.983 C 135.875 300.621,123.539 269.872,121.348 241.366 L 120.705 233.000 124.602 232.960 C 126.746 232.938,137.637 232.814,148.804 232.685 C 159.972 232.555,169.468 232.686,169.907 232.975 C 170.346 233.264,170.966 237.775,171.285 243.000 C 171.960 254.062,173.855 263.661,178.040 277.220 C 180.959 286.677,181.102 286.911,183.375 285.875 L 185.710 284.811 182.829 275.656 C 179.044 263.629,175.824 245.460,176.200 238.253 L 176.500 232.500 188.917 232.765 C 203.416 233.073,205.000 232.745,205.000 229.433 L 205.000 227.000 190.349 227.000 L 175.698 227.000 176.312 217.656 C 176.975 207.565,179.484 195.184,183.431 182.533 C 185.912 174.580,185.743 173.061,182.369 173.015 C 181.120 172.998,176.078 188.312,173.486 200.000 C 172.571 204.125,171.572 211.888,171.266 217.250 L 170.709 227.000 145.717 227.000 L 120.724 227.000 121.411 219.250 C 123.945 190.636,134.373 164.275,151.680 142.730 L 157.119 135.960 164.627 142.230 C 177.295 152.809,176.778 152.511,179.000 150.500 C 180.856 148.820,180.684 148.583,173.207 142.522 C 168.968 139.086,164.600 135.261,163.500 134.020 L 161.500 131.765 167.500 126.290 C 178.729 116.043,195.454 106.147,211.000 100.552 C 219.065 97.650,234.944 93.611,235.622 94.289 C 235.850 94.517,234.244 95.945,232.053 97.464 C 222.270 104.243,206.554 123.077,198.074 138.184 L 194.884 143.867 197.028 145.015 C 198.207 145.646,199.299 146.013,199.456 145.831 C 199.612 145.649,201.898 141.900,204.536 137.500 C 216.207 118.034,229.569 104.023,244.098 96.014 C 253.797 90.668,253.061 87.715,252.762 130.750 M80.473 174.500 C 80.474 213.000,80.598 228.605,80.750 209.177 C 80.902 189.749,80.901 158.249,80.749 139.177 C 80.598 120.105,80.473 136.000,80.473 174.500 M412.470 180.000 C 412.470 214.375,412.596 228.438,412.749 211.250 C 412.903 194.063,412.903 165.938,412.749 148.750 C 412.596 131.563,412.470 145.625,412.470 180.000 M315.321 149.613 C 312.224 151.140,309.000 156.150,309.000 159.433 C 309.000 165.301,314.666 171.000,320.500 171.000 C 326.304 171.000,332.000 165.527,332.000 159.951 C 332.000 156.091,328.947 151.203,325.522 149.577 C 321.385 147.615,319.360 147.622,315.321 149.613 M327.349 173.233 L 325.198 174.217 327.512 180.859 C 331.912 193.485,335.907 213.955,335.980 224.250 L 336.000 227.000 321.000 227.000 L 306.000 227.000 306.000 229.500 C 306.000 230.875,306.338 232.073,306.750 232.161 C 307.163 232.250,313.688 232.401,321.251 232.496 C 328.814 232.591,335.290 232.957,335.641 233.308 C 336.630 234.296,334.117 254.564,331.898 263.500 C 330.805 267.900,328.985 274.342,327.853 277.814 C 325.854 283.946,325.848 284.168,327.647 285.497 C 330.005 287.238,330.314 286.852,332.860 279.000 C 336.655 267.293,338.925 256.692,340.176 244.840 L 341.407 233.180 346.453 232.666 C 349.229 232.384,356.450 232.282,362.500 232.440 C 368.550 232.598,374.063 232.516,374.750 232.257 C 375.438 231.998,376.000 230.709,376.000 229.393 L 376.000 227.000 358.618 227.000 L 341.237 227.000 340.546 218.250 C 339.631 206.647,336.664 192.107,333.031 181.428 C 331.407 176.652,329.948 172.633,329.789 172.497 C 329.630 172.360,328.532 172.692,327.349 173.233 M242.500 190.757 C 220.618 198.556,209.604 224.303,218.998 245.698 C 220.565 249.266,250.849 300.912,254.557 306.339 C 255.671 307.970,257.832 304.799,273.637 278.339 C 283.699 261.494,292.438 245.669,293.705 242.000 C 300.416 222.557,291.089 201.013,272.120 192.142 C 264.717 188.680,250.229 188.002,242.500 190.757 M262.782 211.551 C 277.775 217.804,279.758 237.490,266.258 246.052 C 262.634 248.349,260.452 249.000,256.369 249.000 C 247.391 249.000,241.531 245.352,237.896 237.500 C 230.711 221.982,247.020 204.977,262.782 211.551 M99.079 247.583 C 99.127 248.748,99.364 248.985,99.683 248.188 C 99.972 247.466,99.936 246.603,99.604 246.271 C 99.272 245.939,99.036 246.529,99.079 247.583 M430.158 252.000 C 430.158 253.375,430.385 253.938,430.662 253.250 C 430.940 252.563,430.940 251.438,430.662 250.750 C 430.385 250.063,430.158 250.625,430.158 252.000 M411.079 254.583 C 411.127 255.748,411.364 255.985,411.683 255.188 C 411.972 254.466,411.936 253.603,411.604 253.271 C 411.272 252.939,411.036 253.529,411.079 254.583 M81.079 256.583 C 81.127 257.748,81.364 257.985,81.683 257.188 C 81.972 256.466,81.936 255.603,81.604 255.271 C 81.272 254.939,81.036 255.529,81.079 256.583 M185.763 289.565 C 184.257 290.382,182.344 292.367,181.513 293.976 C 175.503 305.598,190.147 316.580,199.364 307.364 C 208.567 298.161,197.240 283.338,185.763 289.565 M314.353 289.926 C 308.439 293.533,307.595 302.322,312.676 307.403 C 318.001 312.728,327.240 311.228,330.423 304.522 C 332.399 300.357,332.414 297.702,330.483 293.967 C 327.543 288.282,320.106 286.419,314.353 289.926 M133.000 334.378 C 133.000 334.585,133.788 335.373,134.750 336.128 C 136.336 337.371,136.371 337.336,135.128 335.750 C 133.821 334.084,133.000 333.555,133.000 334.378 M141.000 343.500 C 142.866 345.425,144.617 347.000,144.892 347.000 C 145.167 347.000,143.866 345.425,142.000 343.500 C 140.134 341.575,138.383 340.000,138.108 340.000 C 137.833 340.000,139.134 341.575,141.000 343.500 M364.437 349.250 L 361.500 352.500 364.750 349.563 C 367.779 346.825,368.460 346.000,367.687 346.000 C 367.515 346.000,366.052 347.463,364.437 349.250 M148.000 350.313 C 148.000 350.485,149.463 351.948,151.250 353.563 L 154.500 356.500 151.563 353.250 C 148.825 350.221,148.000 349.540,148.000 350.313 M122.000 351.378 C 122.000 351.585,122.788 352.373,123.750 353.128 C 125.336 354.371,125.371 354.336,124.128 352.750 C 122.821 351.084,122.000 350.555,122.000 351.378 M384.405 356.250 L 382.500 358.500 384.750 356.595 C 386.864 354.805,387.455 354.000,386.655 354.000 C 386.465 354.000,385.453 355.013,384.405 356.250 M352.872 359.750 C 351.629 361.336,351.664 361.371,353.250 360.128 C 354.213 359.373,355.000 358.585,355.000 358.378 C 355.000 357.555,354.179 358.084,352.872 359.750 M371.924 368.750 L 369.500 371.500 372.250 369.076 C 374.820 366.810,375.459 366.000,374.674 366.000 C 374.495 366.000,373.258 367.238,371.924 368.750 M142.000 371.378 C 142.000 371.585,142.788 372.373,143.750 373.128 C 145.336 374.371,145.371 374.336,144.128 372.750 C 142.821 371.084,142.000 370.555,142.000 371.378 M248.274 406.036 C 237.495 411.517,236.265 427.068,246.059 434.042 C 251.012 437.569,259.392 437.930,263.976 434.815 C 271.405 429.766,273.954 421.611,270.606 413.600 C 267.212 405.477,256.505 401.851,248.274 406.036 " stroke="none" fill="#2dd4bf" fill-rule="evenodd"/><path d="M213.000 48.376 C 185.826 57.649,140.156 76.687,98.881 95.948 L 81.262 104.169 80.643 113.335 C 79.669 127.763,79.967 231.939,81.028 247.805 C 85.873 320.268,127.953 375.005,210.394 416.084 C 220.235 420.988,228.673 425.000,229.144 425.000 C 229.615 425.000,230.010 422.638,230.022 419.750 C 230.035 416.733,230.869 412.681,231.985 410.224 L 233.925 405.949 225.257 401.944 C 212.228 395.925,189.953 382.946,176.806 373.713 C 140.600 348.287,118.921 320.790,107.136 285.344 C 99.621 262.740,99.630 262.854,99.244 185.894 L 98.899 117.288 118.200 108.709 C 161.819 89.319,200.677 73.540,223.098 66.110 L 235.695 61.936 233.348 57.298 C 231.848 54.336,231.000 50.916,231.000 47.831 C 231.000 44.610,230.583 43.014,229.750 43.043 C 229.063 43.067,221.525 45.467,213.000 48.376 M280.707 48.554 C 280.391 51.609,279.185 55.716,278.026 57.681 C 276.867 59.645,276.147 61.480,276.425 61.759 C 276.704 62.037,283.367 64.415,291.232 67.044 C 299.097 69.672,313.400 74.968,323.016 78.813 C 352.427 90.572,408.653 114.960,411.750 117.300 C 413.305 118.476,413.517 229.880,411.999 248.200 C 408.735 287.584,393.773 319.215,364.522 348.573 C 344.615 368.551,322.835 383.721,291.895 399.155 L 278.291 405.942 280.230 411.686 C 281.296 414.845,282.007 419.133,281.808 421.215 C 281.610 423.297,281.802 425.000,282.237 425.000 C 283.729 425.000,308.085 413.102,317.288 407.877 C 373.258 376.100,407.218 338.577,422.400 291.739 C 430.509 266.719,430.982 260.346,430.992 175.927 L 431.000 104.354 410.250 94.757 C 366.712 74.621,327.582 58.366,299.156 48.610 C 290.167 45.524,282.468 43.000,282.046 43.000 C 281.625 43.000,281.022 45.500,280.707 48.554 " stroke="none" fill="#e2e8f0" fill-rule="evenodd"/><path d="M269.000 38.000 C 269.589 39.100,270.295 40.000,270.570 40.000 C 270.845 40.000,270.589 39.100,270.000 38.000 C 269.411 36.900,268.705 36.000,268.430 36.000 C 268.155 36.000,268.411 36.900,269.000 38.000 M240.564 39.707 C 240.022 41.132,240.136 41.247,241.124 40.267 C 241.808 39.588,242.115 38.781,241.807 38.474 C 241.499 38.166,240.940 38.721,240.564 39.707 M226.000 43.000 C 224.172 44.181,225.751 44.181,228.500 43.000 C 229.819 42.433,229.989 42.122,229.000 42.086 C 228.175 42.055,226.825 42.467,226.000 43.000 M231.195 46.500 C 231.215 48.150,231.439 48.704,231.693 47.731 C 231.947 46.758,231.930 45.408,231.656 44.731 C 231.382 44.054,231.175 44.850,231.195 46.500 M239.232 47.000 C 239.232 48.925,239.438 49.713,239.689 48.750 C 239.941 47.788,239.941 46.213,239.689 45.250 C 239.438 44.288,239.232 45.075,239.232 47.000 M280.195 46.500 C 280.215 48.150,280.439 48.704,280.693 47.731 C 280.947 46.758,280.930 45.408,280.656 44.731 C 280.382 44.054,280.175 44.850,280.195 46.500 M279.079 52.583 C 279.127 53.748,279.364 53.985,279.683 53.188 C 279.972 52.466,279.936 51.603,279.604 51.271 C 279.272 50.939,279.036 51.529,279.079 52.583 M243.496 57.843 C 244.586 59.131,246.383 60.649,247.489 61.215 C 249.613 62.303,249.303 61.967,244.507 57.985 C 241.620 55.588,241.584 55.583,243.496 57.843 M258.424 63.338 C 258.141 64.075,258.065 68.237,258.254 72.588 L 258.598 80.500 258.799 71.833 C 258.934 65.997,259.408 63.002,260.250 62.662 C 261.229 62.267,261.222 62.141,260.219 62.079 C 259.514 62.036,258.706 62.602,258.424 63.338 M251.995 74.704 C 251.723 81.416,251.853 86.553,252.284 86.120 C 252.716 85.686,252.938 80.194,252.779 73.916 L 252.490 62.500 251.995 74.704 M280.813 64.683 C 281.534 64.972,282.397 64.936,282.729 64.604 C 283.061 64.272,282.471 64.036,281.417 64.079 C 280.252 64.127,280.015 64.364,280.813 64.683 M343.000 65.000 C 343.825 65.533,344.950 65.969,345.500 65.969 C 346.050 65.969,345.825 65.533,345.000 65.000 C 344.175 64.467,343.050 64.031,342.500 64.031 C 341.950 64.031,342.175 64.467,343.000 65.000 M355.000 70.000 C 355.825 70.533,356.950 70.969,357.500 70.969 C 358.050 70.969,357.825 70.533,357.000 70.000 C 356.175 69.467,355.050 69.031,354.500 69.031 C 353.950 69.031,354.175 69.467,355.000 70.000 M144.000 74.500 C 142.625 75.286,141.976 75.945,142.559 75.965 C 143.141 75.984,144.491 75.339,145.559 74.532 C 148.028 72.664,147.239 72.648,144.000 74.500 M369.000 76.000 C 369.825 76.533,370.950 76.969,371.500 76.969 C 372.050 76.969,371.825 76.533,371.000 76.000 C 370.175 75.467,369.050 75.031,368.500 75.031 C 367.950 75.031,368.175 75.467,369.000 76.000 M376.733 79.124 C 377.412 79.808,378.219 80.115,378.526 79.807 C 378.834 79.499,378.279 78.940,377.293 78.564 C 375.868 78.022,375.753 78.136,376.733 79.124 M127.000 82.000 C 126.175 82.533,125.950 82.969,126.500 82.969 C 127.050 82.969,128.175 82.533,129.000 82.000 C 129.825 81.467,130.050 81.031,129.500 81.031 C 128.950 81.031,127.825 81.467,127.000 82.000 M258.341 83.423 C 258.431 85.072,259.154 86.522,260.000 86.749 C 261.003 87.019,261.119 86.878,260.351 86.326 C 259.719 85.872,258.972 84.375,258.692 83.000 C 258.253 80.847,258.205 80.906,258.341 83.423 M118.000 86.000 C 117.175 86.533,116.950 86.969,117.500 86.969 C 118.050 86.969,119.175 86.533,120.000 86.000 C 120.825 85.467,121.050 85.031,120.500 85.031 C 119.950 85.031,118.825 85.467,118.000 86.000 M337.000 85.393 C 337.000 85.609,337.698 86.054,338.552 86.382 C 339.442 86.723,339.843 86.555,339.493 85.989 C 338.906 85.038,337.000 84.583,337.000 85.393 M271.813 87.683 C 272.534 87.972,273.397 87.936,273.729 87.604 C 274.061 87.272,273.471 87.036,272.417 87.079 C 271.252 87.127,271.015 87.364,271.813 87.683 M396.000 88.000 C 396.825 88.533,397.950 88.969,398.500 88.969 C 399.050 88.969,398.825 88.533,398.000 88.000 C 397.175 87.467,396.050 87.031,395.500 87.031 C 394.950 87.031,395.175 87.467,396.000 88.000 M108.000 90.500 C 106.625 91.286,105.950 91.929,106.500 91.929 C 107.050 91.929,108.625 91.286,110.000 90.500 C 111.375 89.714,112.050 89.071,111.500 89.071 C 110.950 89.071,109.375 89.714,108.000 90.500 M162.000 90.000 C 161.175 90.533,160.950 90.969,161.500 90.969 C 162.050 90.969,163.175 90.533,164.000 90.000 C 164.825 89.467,165.050 89.031,164.500 89.031 C 163.950 89.031,162.825 89.467,162.000 90.000 M282.813 89.683 C 283.534 89.972,284.397 89.936,284.729 89.604 C 285.061 89.272,284.471 89.036,283.417 89.079 C 282.252 89.127,282.015 89.364,282.813 89.683 M218.813 91.683 C 219.534 91.972,220.397 91.936,220.729 91.604 C 221.061 91.272,220.471 91.036,219.417 91.079 C 218.252 91.127,218.015 91.364,218.813 91.683 M405.000 91.490 C 405.000 92.175,411.123 95.210,411.580 94.753 C 411.797 94.536,410.406 93.610,408.487 92.695 C 406.569 91.781,405.000 91.239,405.000 91.490 M155.000 93.000 C 154.175 93.533,153.950 93.969,154.500 93.969 C 155.050 93.969,156.175 93.533,157.000 93.000 C 157.825 92.467,158.050 92.031,157.500 92.031 C 156.950 92.031,155.825 92.467,155.000 93.000 M251.754 117.749 C 251.894 131.362,252.133 148.350,252.286 155.500 C 252.438 162.650,252.662 151.513,252.782 130.750 C 252.902 109.988,252.663 93.000,252.250 92.999 C 251.838 92.999,251.614 104.136,251.754 117.749 M258.456 94.254 C 258.191 94.944,258.093 111.932,258.238 132.004 L 258.502 168.500 259.001 130.750 C 259.275 109.987,259.373 92.999,259.219 93.000 C 259.064 93.000,258.721 93.564,258.456 94.254 M233.490 95.016 C 233.144 95.575,232.373 95.731,231.776 95.362 C 231.113 94.952,230.980 95.159,231.435 95.894 C 232.004 96.815,232.509 96.823,233.589 95.926 C 235.004 94.752,235.383 94.000,234.559 94.000 C 234.316 94.000,233.835 94.457,233.490 95.016 M246.507 94.989 C 246.157 95.555,246.558 95.723,247.448 95.382 C 249.180 94.717,249.497 94.000,248.059 94.000 C 247.541 94.000,246.843 94.445,246.507 94.989 M362.000 96.000 C 362.825 96.533,363.950 96.969,364.500 96.969 C 365.050 96.969,364.825 96.533,364.000 96.000 C 363.175 95.467,362.050 95.031,361.500 95.031 C 360.950 95.031,361.175 95.467,362.000 96.000 M94.507 96.989 C 94.157 97.555,94.558 97.723,95.448 97.382 C 97.180 96.717,97.497 96.000,96.059 96.000 C 95.541 96.000,94.843 96.445,94.507 96.989 M225.813 96.683 C 226.534 96.972,227.397 96.936,227.729 96.604 C 228.061 96.272,227.471 96.036,226.417 96.079 C 225.252 96.127,225.015 96.364,225.813 96.683 M307.733 97.124 C 308.412 97.808,309.219 98.115,309.526 97.807 C 309.834 97.499,309.279 96.940,308.293 96.564 C 306.868 96.022,306.753 96.136,307.733 97.124 M90.000 99.000 C 89.175 99.533,88.950 99.969,89.500 99.969 C 90.050 99.969,91.175 99.533,92.000 99.000 C 92.825 98.467,93.050 98.031,92.500 98.031 C 91.950 98.031,90.825 98.467,90.000 99.000 M227.872 99.750 C 226.629 101.336,226.664 101.371,228.250 100.128 C 229.213 99.373,230.000 98.585,230.000 98.378 C 230.000 97.555,229.179 98.084,227.872 99.750 M237.861 100.059 L 235.500 102.119 238.250 100.444 C 239.763 99.523,241.000 98.597,241.000 98.385 C 241.000 97.604,240.165 98.050,237.861 100.059 M214.813 99.683 C 215.534 99.972,216.397 99.936,216.729 99.604 C 217.061 99.272,216.471 99.036,215.417 99.079 C 214.252 99.127,214.015 99.364,214.813 99.683 M314.000 99.490 C 314.000 100.175,320.123 103.210,320.580 102.753 C 320.797 102.536,319.406 101.610,317.487 100.695 C 315.569 99.781,314.000 99.239,314.000 99.490 M426.000 102.000 C 427.925 103.054,429.950 103.916,430.500 103.916 C 431.050 103.916,429.925 103.054,428.000 102.000 C 426.075 100.946,424.050 100.084,423.500 100.084 C 422.950 100.084,424.075 100.946,426.000 102.000 M289.958 106.250 C 294.102 110.665,295.000 111.459,295.000 110.708 C 295.000 110.548,292.863 108.410,290.250 105.958 L 285.500 101.500 289.958 106.250 M378.000 103.000 C 378.825 103.533,379.950 103.969,380.500 103.969 C 381.050 103.969,380.825 103.533,380.000 103.000 C 379.175 102.467,378.050 102.031,377.500 102.031 C 376.950 102.031,377.175 102.467,378.000 103.000 M306.000 103.393 C 306.000 103.609,306.698 104.054,307.552 104.382 C 308.442 104.723,308.843 104.555,308.493 103.989 C 307.906 103.038,306.000 102.583,306.000 103.393 M186.000 105.000 C 185.099 105.582,184.975 105.975,185.691 105.985 C 186.346 105.993,187.160 105.550,187.500 105.000 C 188.267 103.758,187.921 103.758,186.000 105.000 M198.000 106.000 C 197.175 106.533,196.950 106.969,197.500 106.969 C 198.050 106.969,199.175 106.533,200.000 106.000 C 200.825 105.467,201.050 105.031,200.500 105.031 C 199.950 105.031,198.825 105.467,198.000 106.000 M385.000 106.000 C 385.825 106.533,386.950 106.969,387.500 106.969 C 388.050 106.969,387.825 106.533,387.000 106.000 C 386.175 105.467,385.050 105.031,384.500 105.031 C 383.950 105.031,384.175 105.467,385.000 106.000 M431.473 174.500 C 431.474 213.000,431.598 228.605,431.750 209.177 C 431.902 189.749,431.901 158.249,431.749 139.177 C 431.598 120.105,431.473 136.000,431.473 174.500 M179.861 109.059 L 177.500 111.119 180.250 109.444 C 181.763 108.523,183.000 107.597,183.000 107.385 C 183.000 106.604,182.165 107.050,179.861 109.059 M224.946 110.750 L 221.500 114.500 225.250 111.054 C 228.740 107.846,229.460 107.000,228.696 107.000 C 228.529 107.000,226.842 108.688,224.946 110.750 M285.500 111.000 C 287.648 113.200,289.631 115.000,289.906 115.000 C 290.181 115.000,288.648 113.200,286.500 111.000 C 284.352 108.800,282.369 107.000,282.094 107.000 C 281.819 107.000,283.352 108.800,285.500 111.000 M329.433 107.891 C 330.146 109.045,334.000 111.374,334.000 110.650 C 334.000 110.419,332.820 109.457,331.377 108.511 C 329.934 107.566,329.059 107.287,329.433 107.891 M217.872 109.750 C 216.629 111.336,216.664 111.371,218.250 110.128 C 219.213 109.373,220.000 108.585,220.000 108.378 C 220.000 107.555,219.179 108.084,217.872 109.750 M190.507 109.989 C 190.157 110.555,190.558 110.723,191.448 110.382 C 193.180 109.717,193.497 109.000,192.059 109.000 C 191.541 109.000,190.843 109.445,190.507 109.989 M396.000 111.000 C 396.825 111.533,397.950 111.969,398.500 111.969 C 399.050 111.969,398.825 111.533,398.000 111.000 C 397.175 110.467,396.050 110.031,395.500 110.031 C 394.950 110.031,395.175 110.467,396.000 111.000 M109.000 113.000 C 108.175 113.533,107.950 113.969,108.500 113.969 C 109.050 113.969,110.175 113.533,111.000 113.000 C 111.825 112.467,112.050 112.031,111.500 112.031 C 110.950 112.031,109.825 112.467,109.000 113.000 M212.872 114.750 C 211.629 116.336,211.664 116.371,213.250 115.128 C 214.916 113.821,215.445 113.000,214.622 113.000 C 214.415 113.000,213.627 113.788,212.872 114.750 M404.083 114.373 C 405.112 115.294,411.000 117.999,411.000 117.551 C 411.000 116.975,405.456 114.000,404.383 114.000 C 403.989 114.000,403.854 114.168,404.083 114.373 M168.872 116.750 C 167.603 118.369,167.650 118.390,169.500 117.033 C 170.600 116.226,171.688 115.439,171.917 115.283 C 172.146 115.127,171.863 115.000,171.289 115.000 C 170.715 115.000,169.627 115.788,168.872 116.750 M298.000 115.378 C 298.000 115.585,298.788 116.373,299.750 117.128 C 301.336 118.371,301.371 118.336,300.128 116.750 C 298.821 115.084,298.000 114.555,298.000 115.378 M218.872 117.750 C 217.629 119.336,217.664 119.371,219.250 118.128 C 220.916 116.821,221.445 116.000,220.622 116.000 C 220.415 116.000,219.627 116.788,218.872 117.750 M99.345 118.543 C 99.019 119.392,98.976 120.310,99.249 120.583 C 99.523 120.856,99.986 120.161,100.279 119.040 C 100.903 116.657,100.210 116.289,99.345 118.543 M333.226 118.579 C 334.176 119.570,335.168 120.166,335.431 119.903 C 335.694 119.640,334.917 118.829,333.705 118.100 C 331.598 116.835,331.577 116.857,333.226 118.579 M175.872 119.750 C 174.629 121.336,174.664 121.371,176.250 120.128 C 177.213 119.373,178.000 118.585,178.000 118.378 C 178.000 117.555,177.179 118.084,175.872 119.750 M162.872 121.750 C 161.629 123.336,161.664 123.371,163.250 122.128 C 164.213 121.373,165.000 120.585,165.000 120.378 C 165.000 119.555,164.179 120.084,162.872 121.750 M206.872 122.750 C 205.629 124.336,205.664 124.371,207.250 123.128 C 208.213 122.373,209.000 121.585,209.000 121.378 C 209.000 120.555,208.179 121.084,206.872 122.750 M99.365 131.500 C 99.368 137.000,99.536 139.122,99.738 136.216 C 99.941 133.311,99.939 128.811,99.734 126.216 C 99.528 123.622,99.363 126.000,99.365 131.500 M297.000 124.378 C 297.000 124.585,297.788 125.373,298.750 126.128 C 300.336 127.371,300.371 127.336,299.128 125.750 C 297.821 124.084,297.000 123.555,297.000 124.378 M306.000 126.000 C 306.589 127.100,307.295 128.000,307.570 128.000 C 307.845 128.000,307.589 127.100,307.000 126.000 C 306.411 124.900,305.705 124.000,305.430 124.000 C 305.155 124.000,305.411 124.900,306.000 126.000 M343.500 127.000 C 344.495 128.100,345.535 129.000,345.810 129.000 C 346.085 129.000,345.495 128.100,344.500 127.000 C 343.505 125.900,342.465 125.000,342.190 125.000 C 341.915 125.000,342.505 125.900,343.500 127.000 M210.872 127.750 C 209.629 129.336,209.664 129.371,211.250 128.128 C 212.213 127.373,213.000 126.585,213.000 126.378 C 213.000 125.555,212.179 126.084,210.872 127.750 M162.955 130.555 C 161.872 131.859,162.047 132.462,164.045 134.305 L 166.426 136.500 164.575 134.269 C 163.059 132.442,162.952 131.762,163.984 130.519 C 164.678 129.683,165.020 129.000,164.745 129.000 C 164.470 129.000,163.664 129.700,162.955 130.555 M200.632 132.250 L 198.833 135.500 200.894 133.000 C 202.722 130.783,203.534 129.000,202.716 129.000 C 202.559 129.000,201.622 130.463,200.632 132.250 M208.000 132.000 C 207.411 133.100,207.155 134.000,207.430 134.000 C 207.705 134.000,208.411 133.100,209.000 132.000 C 209.589 130.900,209.845 130.000,209.570 130.000 C 209.295 130.000,208.589 130.900,208.000 132.000 M149.872 134.750 C 148.629 136.336,148.664 136.371,150.250 135.128 C 151.916 133.821,152.445 133.000,151.622 133.000 C 151.415 133.000,150.627 133.788,149.872 134.750 M304.564 135.293 C 304.940 136.279,305.499 136.834,305.807 136.526 C 306.115 136.219,305.808 135.412,305.124 134.733 C 304.136 133.753,304.022 133.868,304.564 135.293 M344.405 136.250 L 342.500 138.500 344.750 136.595 C 345.988 135.547,347.000 134.535,347.000 134.345 C 347.000 133.545,346.195 134.136,344.405 136.250 M159.000 138.378 C 159.000 138.585,159.788 139.373,160.750 140.128 C 162.336 141.371,162.371 141.336,161.128 139.750 C 159.821 138.084,159.000 137.555,159.000 138.378 M169.000 138.378 C 169.000 138.585,169.788 139.373,170.750 140.128 C 172.336 141.371,172.371 141.336,171.128 139.750 C 169.821 138.084,169.000 137.555,169.000 138.378 M202.954 140.086 C 202.340 141.233,202.026 142.360,202.257 142.590 C 202.487 142.820,203.189 141.882,203.816 140.504 C 205.194 137.480,204.523 137.154,202.954 140.086 M307.564 140.293 C 307.940 141.279,308.499 141.834,308.807 141.526 C 309.115 141.219,308.808 140.412,308.124 139.733 C 307.136 138.753,307.022 138.868,307.564 140.293 M337.872 141.750 C 336.629 143.336,336.664 143.371,338.250 142.128 C 339.213 141.373,340.000 140.585,340.000 140.378 C 340.000 139.555,339.179 140.084,337.872 141.750 M347.405 142.250 L 345.500 144.500 347.750 142.595 C 349.864 140.805,350.455 140.000,349.655 140.000 C 349.465 140.000,348.453 141.013,347.405 142.250 M194.624 142.539 C 193.659 145.053,193.943 145.702,195.122 143.675 C 195.706 142.671,195.973 141.639,195.715 141.382 C 195.458 141.124,194.966 141.645,194.624 142.539 M142.872 143.750 C 141.629 145.336,141.664 145.371,143.250 144.128 C 144.916 142.821,145.445 142.000,144.622 142.000 C 144.415 142.000,143.627 142.788,142.872 143.750 M99.310 149.500 C 99.315 152.800,99.502 154.029,99.725 152.232 C 99.947 150.435,99.943 147.735,99.715 146.232 C 99.486 144.729,99.304 146.200,99.310 149.500 M197.386 146.196 C 198.384 146.755,199.574 146.825,200.045 146.354 C 200.516 145.882,199.707 145.430,198.239 145.343 C 195.952 145.207,195.833 145.327,197.386 146.196 M340.872 147.750 C 339.629 149.336,339.664 149.371,341.250 148.128 C 342.213 147.373,343.000 146.585,343.000 146.378 C 343.000 145.555,342.179 146.084,340.872 147.750 M189.750 147.662 C 190.438 147.940,191.563 147.940,192.250 147.662 C 192.938 147.385,192.375 147.158,191.000 147.158 C 189.625 147.158,189.063 147.385,189.750 147.662 M319.269 147.693 C 320.242 147.947,321.592 147.930,322.269 147.656 C 322.946 147.382,322.150 147.175,320.500 147.195 C 318.850 147.215,318.296 147.439,319.269 147.693 M371.511 149.377 C 372.457 150.820,373.419 152.000,373.650 152.000 C 374.374 152.000,372.045 148.146,370.891 147.433 C 370.287 147.059,370.566 147.934,371.511 149.377 M196.000 148.350 C 196.000 148.581,197.180 149.543,198.623 150.489 C 200.066 151.434,200.941 151.713,200.567 151.109 C 199.854 149.955,196.000 147.626,196.000 148.350 M324.000 148.393 C 324.000 148.609,324.698 149.054,325.552 149.382 C 326.442 149.723,326.843 149.555,326.493 148.989 C 325.906 148.038,324.000 147.583,324.000 148.393 M181.388 152.531 C 180.475 153.923,179.911 155.244,180.133 155.467 C 180.356 155.689,181.296 154.550,182.222 152.935 C 184.286 149.340,183.673 149.043,181.388 152.531 M366.511 153.377 C 367.457 154.820,368.419 156.000,368.650 156.000 C 369.374 156.000,367.045 152.146,365.891 151.433 C 365.287 151.059,365.566 151.934,366.511 153.377 M132.564 159.707 C 132.022 161.132,132.136 161.247,133.124 160.267 C 133.808 159.588,134.115 158.781,133.807 158.474 C 133.499 158.166,132.940 158.721,132.564 159.707 M179.158 160.000 C 179.158 161.375,179.385 161.938,179.662 161.250 C 179.940 160.563,179.940 159.438,179.662 158.750 C 179.385 158.063,179.158 158.625,179.158 160.000 M203.000 159.333 C 203.000 160.260,203.777 160.993,204.750 160.985 C 205.749 160.976,206.071 160.649,205.500 160.223 C 204.950 159.813,204.163 159.069,203.750 158.572 C 203.338 158.074,203.000 158.417,203.000 159.333 M308.158 160.000 C 308.158 161.375,308.385 161.938,308.662 161.250 C 308.940 160.563,308.940 159.438,308.662 158.750 C 308.385 158.063,308.158 158.625,308.158 160.000 M332.158 160.000 C 332.158 161.375,332.385 161.938,332.662 161.250 C 332.940 160.563,332.940 159.438,332.662 158.750 C 332.385 158.063,332.158 158.625,332.158 160.000 M378.500 161.000 C 379.353 162.650,380.276 164.000,380.551 164.000 C 380.826 164.000,380.353 162.650,379.500 161.000 C 378.647 159.350,377.724 158.000,377.449 158.000 C 377.174 158.000,377.647 159.350,378.500 161.000 M99.365 168.500 C 99.368 174.000,99.536 176.122,99.738 173.216 C 99.941 170.311,99.939 165.811,99.734 163.216 C 99.528 160.622,99.363 163.000,99.365 168.500 M137.452 164.093 C 136.572 165.794,136.030 167.363,136.247 167.580 C 136.464 167.797,137.390 166.406,138.305 164.487 C 140.361 160.175,139.649 159.845,137.452 164.093 M374.705 167.472 C 376.182 170.482,377.557 172.776,377.762 172.571 C 378.211 172.122,373.167 162.000,372.494 162.000 C 372.234 162.000,373.229 164.462,374.705 167.472 M309.000 163.642 C 309.000 164.179,309.700 165.491,310.555 166.559 C 312.022 168.389,312.042 168.357,310.920 166.000 C 309.462 162.939,309.000 162.372,309.000 163.642 M328.997 167.250 C 327.525 169.261,327.283 169.960,328.363 169.082 C 330.003 167.751,332.483 164.000,331.723 164.000 C 331.532 164.000,330.305 165.463,328.997 167.250 M200.589 166.856 C 200.298 167.326,201.172 167.499,202.530 167.239 C 203.889 166.979,205.000 166.594,205.000 166.383 C 205.000 165.610,201.101 166.027,200.589 166.856 M243.250 167.689 C 244.213 167.941,245.788 167.941,246.750 167.689 C 247.713 167.438,246.925 167.232,245.000 167.232 C 243.075 167.232,242.288 167.438,243.250 167.689 M265.762 167.707 C 267.006 167.946,268.806 167.937,269.762 167.687 C 270.718 167.437,269.700 167.241,267.500 167.252 C 265.300 167.263,264.518 167.468,265.762 167.707 M382.000 167.941 C 382.000 168.459,382.445 169.157,382.989 169.493 C 383.555 169.843,383.723 169.442,383.382 168.552 C 382.717 166.820,382.000 166.503,382.000 167.941 M127.564 169.707 C 127.022 171.132,127.136 171.247,128.124 170.267 C 128.808 169.588,129.115 168.781,128.807 168.474 C 128.499 168.166,127.940 168.721,127.564 169.707 M133.954 171.086 C 133.340 172.233,133.026 173.360,133.257 173.590 C 133.487 173.820,134.189 172.882,134.816 171.504 C 136.194 168.480,135.523 168.154,133.954 171.086 M325.441 173.555 C 323.577 175.049,323.589 175.067,325.750 174.020 C 326.988 173.420,328.000 172.720,328.000 172.465 C 328.000 171.700,327.481 171.921,325.441 173.555 M274.813 173.683 C 275.534 173.972,276.397 173.936,276.729 173.604 C 277.061 173.272,276.471 173.036,275.417 173.079 C 274.252 173.127,274.015 173.364,274.813 173.683 M248.189 174.687 C 251.167 175.031,251.962 175.587,252.311 177.569 C 252.689 179.715,252.728 179.676,252.622 177.262 C 252.511 174.748,252.141 174.489,248.500 174.381 L 244.500 174.262 248.189 174.687 M258.345 175.543 C 258.019 176.392,258.034 177.367,258.376 177.710 C 258.719 178.053,259.000 177.610,259.000 176.727 C 259.000 175.607,260.136 175.002,262.750 174.728 L 266.500 174.336 262.719 174.168 C 260.119 174.053,258.752 174.482,258.345 175.543 M379.564 178.293 C 379.940 179.279,380.499 179.834,380.807 179.526 C 381.115 179.219,380.808 178.412,380.124 177.733 C 379.136 176.753,379.022 176.868,379.564 178.293 M99.310 189.500 C 99.315 192.800,99.502 194.029,99.725 192.232 C 99.947 190.435,99.943 187.735,99.715 186.232 C 99.486 184.729,99.304 186.200,99.310 189.500 M182.079 187.583 C 182.127 188.748,182.364 188.985,182.683 188.188 C 182.972 187.466,182.936 186.603,182.604 186.271 C 182.272 185.939,182.036 186.529,182.079 187.583 M329.079 188.583 C 329.127 189.748,329.364 189.985,329.683 189.188 C 329.972 188.466,329.936 187.603,329.604 187.271 C 329.272 186.939,329.036 187.529,329.079 188.583 M120.459 189.067 C 120.096 189.653,120.014 190.348,120.276 190.610 C 120.538 190.872,121.019 190.392,121.345 189.543 C 122.021 187.781,121.445 187.471,120.459 189.067 M237.000 192.000 C 236.099 192.582,235.975 192.975,236.691 192.985 C 237.346 192.993,238.160 192.550,238.500 192.000 C 239.267 190.758,238.921 190.758,237.000 192.000 M226.946 199.750 L 223.500 203.500 227.250 200.054 C 230.740 196.846,231.460 196.000,230.696 196.000 C 230.529 196.000,228.842 197.688,226.946 199.750 M99.232 201.000 C 99.232 202.925,99.438 203.713,99.689 202.750 C 99.941 201.788,99.941 200.213,99.689 199.250 C 99.438 198.288,99.232 199.075,99.232 201.000 M124.079 201.583 C 124.127 202.748,124.364 202.985,124.683 202.188 C 124.972 201.466,124.936 200.603,124.604 200.271 C 124.272 199.939,124.036 200.529,124.079 201.583 M222.278 205.250 C 220.779 207.188,219.836 209.000,220.326 209.000 C 220.570 209.000,221.507 207.875,222.408 206.500 C 224.094 203.927,224.000 203.024,222.278 205.250 M171.079 207.583 C 171.127 208.748,171.364 208.985,171.683 208.188 C 171.972 207.466,171.936 206.603,171.604 206.271 C 171.272 205.939,171.036 206.529,171.079 207.583 M99.158 209.000 C 99.158 210.375,99.385 210.938,99.662 210.250 C 99.940 209.563,99.940 208.438,99.662 207.750 C 99.385 207.063,99.158 207.625,99.158 209.000 M116.079 209.583 C 116.127 210.748,116.364 210.985,116.683 210.188 C 116.972 209.466,116.936 208.603,116.604 208.271 C 116.272 207.939,116.036 208.529,116.079 209.583 M340.158 211.000 C 340.158 212.375,340.385 212.938,340.662 212.250 C 340.940 211.563,340.940 210.438,340.662 209.750 C 340.385 209.063,340.158 209.625,340.158 211.000 M177.079 211.583 C 177.127 212.748,177.364 212.985,177.683 212.188 C 177.972 211.466,177.936 210.603,177.604 210.271 C 177.272 209.939,177.036 210.529,177.079 211.583 M263.000 212.393 C 263.000 212.609,263.698 213.054,264.552 213.382 C 265.442 213.723,265.843 213.555,265.493 212.989 C 264.906 212.038,263.000 211.583,263.000 212.393 M334.158 215.000 C 334.158 216.375,334.385 216.938,334.662 216.250 C 334.940 215.563,334.940 214.438,334.662 213.750 C 334.385 213.063,334.158 213.625,334.158 215.000 M395.079 214.583 C 395.127 215.748,395.364 215.985,395.683 215.188 C 395.972 214.466,395.936 213.603,395.604 213.271 C 395.272 212.939,395.036 213.529,395.079 214.583 M99.320 220.000 C 99.320 223.575,99.502 225.038,99.723 223.250 C 99.945 221.463,99.945 218.538,99.723 216.750 C 99.502 214.963,99.320 216.425,99.320 220.000 M122.079 215.583 C 122.127 216.748,122.364 216.985,122.683 216.188 C 122.972 215.466,122.936 214.603,122.604 214.271 C 122.272 213.939,122.036 214.529,122.079 215.583 M170.079 215.583 C 170.127 216.748,170.364 216.985,170.683 216.188 C 170.972 215.466,170.936 214.603,170.604 214.271 C 170.272 213.939,170.036 214.529,170.079 215.583 M268.000 215.378 C 268.000 215.585,268.788 216.373,269.750 217.128 C 271.336 218.371,271.371 218.336,270.128 216.750 C 268.821 215.084,268.000 214.555,268.000 215.378 M115.195 219.500 C 115.215 221.150,115.439 221.704,115.693 220.731 C 115.947 219.758,115.930 218.408,115.656 217.731 C 115.382 217.054,115.175 217.850,115.195 219.500 M388.500 219.000 C 388.160 219.550,388.359 220.000,388.941 220.000 C 389.523 220.000,390.000 219.550,390.000 219.000 C 390.000 218.450,389.802 218.000,389.559 218.000 C 389.316 218.000,388.840 218.450,388.500 219.000 M395.079 219.583 C 395.127 220.748,395.364 220.985,395.683 220.188 C 395.972 219.466,395.936 218.603,395.604 218.271 C 395.272 217.939,395.036 218.529,395.079 219.583 M176.158 222.000 C 176.158 223.375,176.385 223.938,176.662 223.250 C 176.940 222.563,176.940 221.438,176.662 220.750 C 176.385 220.063,176.158 220.625,176.158 222.000 M341.232 223.000 C 341.232 224.925,341.438 225.713,341.689 224.750 C 341.941 223.788,341.941 222.213,341.689 221.250 C 341.438 220.288,341.232 221.075,341.232 223.000 M335.000 223.937 C 335.000 225.372,334.159 225.978,331.750 226.277 C 328.550 226.674,328.558 226.682,332.250 226.840 C 335.626 226.984,336.000 226.751,336.000 224.500 C 336.000 223.125,335.775 222.000,335.500 222.000 C 335.225 222.000,335.000 222.871,335.000 223.937 M296.158 225.000 C 296.158 226.375,296.385 226.938,296.662 226.250 C 296.940 225.563,296.940 224.438,296.662 223.750 C 296.385 223.063,296.158 223.625,296.158 225.000 M380.035 224.934 C 379.466 225.998,379.046 227.911,379.102 229.184 C 379.185 231.043,379.350 230.891,379.943 228.413 C 380.349 226.715,381.004 224.802,381.399 224.163 C 381.795 223.523,381.882 223.000,381.594 223.000 C 381.306 223.000,380.605 223.870,380.035 224.934 M115.158 226.000 C 115.158 227.375,115.385 227.938,115.662 227.250 C 115.940 226.563,115.940 225.438,115.662 224.750 C 115.385 224.063,115.158 224.625,115.158 226.000 M128.264 226.718 C 129.784 226.947,132.034 226.941,133.264 226.704 C 134.494 226.467,133.250 226.279,130.500 226.286 C 127.750 226.294,126.744 226.488,128.264 226.718 M146.750 226.706 C 147.988 226.944,150.013 226.944,151.250 226.706 C 152.488 226.467,151.475 226.272,149.000 226.272 C 146.525 226.272,145.513 226.467,146.750 226.706 M155.250 226.689 C 156.213 226.941,157.788 226.941,158.750 226.689 C 159.713 226.438,158.925 226.232,157.000 226.232 C 155.075 226.232,154.288 226.438,155.250 226.689 M166.750 226.662 C 167.438 226.940,168.563 226.940,169.250 226.662 C 169.938 226.385,169.375 226.158,168.000 226.158 C 166.625 226.158,166.063 226.385,166.750 226.662 M184.813 226.683 C 185.534 226.972,186.397 226.936,186.729 226.604 C 187.061 226.272,186.471 226.036,185.417 226.079 C 184.252 226.127,184.015 226.364,184.813 226.683 M191.762 226.707 C 193.006 226.946,194.806 226.937,195.762 226.687 C 196.718 226.437,195.700 226.241,193.500 226.252 C 191.300 226.263,190.518 226.468,191.762 226.707 M312.750 226.723 C 314.538 226.945,317.463 226.945,319.250 226.723 C 321.038 226.502,319.575 226.320,316.000 226.320 C 312.425 226.320,310.963 226.502,312.750 226.723 M353.269 226.693 C 354.242 226.947,355.592 226.930,356.269 226.656 C 356.946 226.382,356.150 226.175,354.500 226.195 C 352.850 226.215,352.296 226.439,353.269 226.693 M364.750 226.662 C 365.438 226.940,366.563 226.940,367.250 226.662 C 367.938 226.385,367.375 226.158,366.000 226.158 C 364.625 226.158,364.063 226.385,364.750 226.662 M205.158 229.000 C 205.158 230.375,205.385 230.938,205.662 230.250 C 205.940 229.563,205.940 228.438,205.662 227.750 C 205.385 227.063,205.158 227.625,205.158 229.000 M305.232 230.000 C 305.232 231.925,305.438 232.713,305.689 231.750 C 305.941 230.788,305.941 229.213,305.689 228.250 C 305.438 227.288,305.232 228.075,305.232 230.000 M296.079 233.583 C 296.127 234.748,296.364 234.985,296.683 234.188 C 296.972 233.466,296.936 232.603,296.604 232.271 C 296.272 231.939,296.036 232.529,296.079 233.583 M99.300 238.000 C 99.300 241.025,99.487 242.263,99.716 240.750 C 99.945 239.238,99.945 236.763,99.716 235.250 C 99.487 233.738,99.300 234.975,99.300 238.000 M397.511 235.623 C 396.566 237.066,396.287 237.941,396.891 237.567 C 398.045 236.854,400.374 233.000,399.650 233.000 C 399.419 233.000,398.457 234.180,397.511 235.623 M237.000 235.441 C 237.000 236.234,237.408 237.134,237.907 237.442 C 238.405 237.751,238.578 237.102,238.290 236.001 C 237.679 233.666,237.000 233.371,237.000 235.441 M341.252 237.500 C 341.263 239.700,341.468 240.482,341.707 239.238 C 341.946 237.994,341.937 236.194,341.687 235.238 C 341.437 234.282,341.241 235.300,341.252 237.500 M381.500 237.000 C 382.495 238.100,383.535 239.000,383.810 239.000 C 384.085 239.000,383.495 238.100,382.500 237.000 C 381.505 235.900,380.465 235.000,380.190 235.000 C 379.915 235.000,380.505 235.900,381.500 237.000 M176.195 238.500 C 176.215 240.150,176.439 240.704,176.693 239.731 C 176.947 238.758,176.930 237.408,176.656 236.731 C 176.382 236.054,176.175 236.850,176.195 238.500 M271.736 239.256 L 269.971 242.500 271.986 240.139 C 273.700 238.130,274.616 235.984,273.750 236.006 C 273.613 236.010,272.706 237.472,271.736 239.256 M239.000 239.659 C 239.000 240.205,240.238 241.742,241.750 243.076 L 244.500 245.500 242.000 242.500 C 240.625 240.850,239.388 239.313,239.250 239.083 C 239.113 238.854,239.000 239.113,239.000 239.659 M115.195 242.500 C 115.215 244.150,115.439 244.704,115.693 243.731 C 115.947 242.758,115.930 241.408,115.656 240.731 C 115.382 240.054,115.175 240.850,115.195 242.500 M388.638 241.500 C 388.955 242.325,389.391 243.000,389.607 243.000 C 389.823 243.000,390.000 242.325,390.000 241.500 C 390.000 240.675,389.564 240.000,389.031 240.000 C 388.499 240.000,388.322 240.675,388.638 241.500 M170.079 244.583 C 170.127 245.748,170.364 245.985,170.683 245.188 C 170.972 244.466,170.936 243.603,170.604 243.271 C 170.272 242.939,170.036 243.529,170.079 244.583 M334.079 244.583 C 334.127 245.748,334.364 245.985,334.683 245.188 C 334.972 244.466,334.936 243.603,334.604 243.271 C 334.272 242.939,334.036 243.529,334.079 244.583 M217.564 245.293 C 217.940 246.279,218.499 246.834,218.807 246.526 C 219.115 246.219,218.808 245.412,218.124 244.733 C 217.136 243.753,217.022 243.868,217.564 245.293 M122.079 246.583 C 122.127 247.748,122.364 247.985,122.683 247.188 C 122.972 246.466,122.936 245.603,122.604 245.271 C 122.272 244.939,122.036 245.529,122.079 246.583 M292.459 246.067 C 292.096 246.653,292.014 247.348,292.276 247.610 C 292.538 247.872,293.019 247.392,293.345 246.543 C 294.021 244.781,293.445 244.471,292.459 246.067 M411.079 246.583 C 411.127 247.748,411.364 247.985,411.683 247.188 C 411.972 246.466,411.936 245.603,411.604 245.271 C 411.272 244.939,411.036 245.529,411.079 246.583 M395.079 247.583 C 395.127 248.748,395.364 248.985,395.683 248.188 C 395.972 247.466,395.936 246.603,395.604 246.271 C 395.272 245.939,395.036 246.529,395.079 247.583 M431.158 249.000 C 431.158 250.375,431.385 250.938,431.662 250.250 C 431.940 249.563,431.940 248.438,431.662 247.750 C 431.385 247.063,431.158 247.625,431.158 249.000 M80.079 249.583 C 80.127 250.748,80.364 250.985,80.683 250.188 C 80.972 249.466,80.936 248.603,80.604 248.271 C 80.272 247.939,80.036 248.529,80.079 249.583 M258.813 248.683 C 259.534 248.972,260.397 248.936,260.729 248.604 C 261.061 248.272,260.471 248.036,259.417 248.079 C 258.252 248.127,258.015 248.364,258.813 248.683 M290.459 250.067 C 290.096 250.653,290.014 251.348,290.276 251.610 C 290.538 251.872,291.019 251.392,291.345 250.543 C 292.021 248.781,291.445 248.471,290.459 250.067 M220.564 251.293 C 220.940 252.279,221.499 252.834,221.807 252.526 C 222.115 252.219,221.808 251.412,221.124 250.733 C 220.136 249.753,220.022 249.868,220.564 251.293 M116.079 252.583 C 116.127 253.748,116.364 253.985,116.683 253.188 C 116.972 252.466,116.936 251.603,116.604 251.271 C 116.272 250.939,116.036 251.529,116.079 252.583 M171.079 252.583 C 171.127 253.748,171.364 253.985,171.683 253.188 C 171.972 252.466,171.936 251.603,171.604 251.271 C 171.272 250.939,171.036 251.529,171.079 252.583 M80.079 254.583 C 80.127 255.748,80.364 255.985,80.683 255.188 C 80.972 254.466,80.936 253.603,80.604 253.271 C 80.272 252.939,80.036 253.529,80.079 254.583 M394.079 254.583 C 394.127 255.748,394.364 255.985,394.683 255.188 C 394.972 254.466,394.936 253.603,394.604 253.271 C 394.272 252.939,394.036 253.529,394.079 254.583 M223.564 256.293 C 223.940 257.279,224.499 257.834,224.807 257.526 C 225.115 257.219,224.808 256.412,224.124 255.733 C 223.136 254.753,223.022 254.868,223.564 256.293 M172.079 257.583 C 172.127 258.748,172.364 258.985,172.683 258.188 C 172.972 257.466,172.936 256.603,172.604 256.271 C 172.272 255.939,172.036 256.529,172.079 257.583 M118.079 262.583 C 118.127 263.748,118.364 263.985,118.683 263.188 C 118.972 262.466,118.936 261.603,118.604 261.271 C 118.272 260.939,118.036 261.529,118.079 262.583 M173.079 262.583 C 173.127 263.748,173.364 263.985,173.683 263.188 C 173.972 262.466,173.936 261.603,173.604 261.271 C 173.272 260.939,173.036 261.529,173.079 262.583 M386.079 262.583 C 386.127 263.748,386.364 263.985,386.683 263.188 C 386.972 262.466,386.936 261.603,386.604 261.271 C 386.272 260.939,386.036 261.529,386.079 262.583 M409.079 263.583 C 409.127 264.748,409.364 264.985,409.683 264.188 C 409.972 263.466,409.936 262.603,409.604 262.271 C 409.272 261.939,409.036 262.529,409.079 263.583 M429.195 265.500 C 429.215 267.150,429.439 267.704,429.693 266.731 C 429.947 265.758,429.930 264.408,429.656 263.731 C 429.382 263.054,429.175 263.850,429.195 265.500 M82.158 268.000 C 82.158 269.375,82.385 269.938,82.662 269.250 C 82.940 268.563,82.940 267.438,82.662 266.750 C 82.385 266.063,82.158 266.625,82.158 268.000 M391.079 268.583 C 391.127 269.748,391.364 269.985,391.683 269.188 C 391.972 268.466,391.936 267.603,391.604 267.271 C 391.272 266.939,391.036 267.529,391.079 268.583 M408.079 268.583 C 408.127 269.748,408.364 269.985,408.683 269.188 C 408.972 268.466,408.936 267.603,408.604 267.271 C 408.272 266.939,408.036 267.529,408.079 268.583 M181.079 269.583 C 181.127 270.748,181.364 270.985,181.683 270.188 C 181.972 269.466,181.936 268.603,181.604 268.271 C 181.272 267.939,181.036 268.529,181.079 269.583 M103.079 270.583 C 103.127 271.748,103.364 271.985,103.683 271.188 C 103.972 270.466,103.936 269.603,103.604 269.271 C 103.272 268.939,103.036 269.529,103.079 270.583 M428.158 271.000 C 428.158 272.375,428.385 272.938,428.662 272.250 C 428.940 271.563,428.940 270.438,428.662 269.750 C 428.385 269.063,428.158 269.625,428.158 271.000 M83.079 273.583 C 83.127 274.748,83.364 274.985,83.683 274.188 C 83.972 273.466,83.936 272.603,83.604 272.271 C 83.272 271.939,83.036 272.529,83.079 273.583 M405.079 280.583 C 405.127 281.748,405.364 281.985,405.683 281.188 C 405.972 280.466,405.936 279.603,405.604 279.271 C 405.272 278.939,405.036 279.529,405.079 280.583 M426.079 280.583 C 426.127 281.748,426.364 281.985,426.683 281.188 C 426.972 280.466,426.936 279.603,426.604 279.271 C 426.272 278.939,426.036 279.529,426.079 280.583 M130.000 280.941 C 130.000 281.459,130.445 282.157,130.989 282.493 C 131.555 282.843,131.723 282.442,131.382 281.552 C 130.717 279.820,130.000 279.503,130.000 280.941 M325.468 282.101 C 325.101 283.256,325.184 284.582,325.651 285.046 C 326.118 285.511,326.548 284.566,326.606 282.946 C 326.732 279.469,326.385 279.211,325.468 282.101 M379.564 282.707 C 379.022 284.132,379.136 284.247,380.124 283.267 C 380.808 282.588,381.115 281.781,380.807 281.474 C 380.499 281.166,379.940 281.721,379.564 282.707 M132.000 285.642 C 132.000 286.179,132.700 287.491,133.555 288.559 C 135.022 290.389,135.042 290.357,133.920 288.000 C 132.462 284.939,132.000 284.372,132.000 285.642 M328.733 287.124 C 329.412 287.808,330.219 288.115,330.526 287.807 C 330.834 287.499,330.279 286.940,329.293 286.564 C 327.868 286.022,327.753 286.136,328.733 287.124 M126.564 289.293 C 126.940 290.279,127.499 290.834,127.807 290.526 C 128.115 290.219,127.808 289.412,127.124 288.733 C 126.136 287.753,126.022 287.868,126.564 289.293 M196.000 288.350 C 196.000 288.581,197.180 289.543,198.623 290.489 C 200.066 291.434,200.941 291.713,200.567 291.109 C 199.854 289.955,196.000 287.626,196.000 288.350 M376.564 289.707 C 376.022 291.132,376.136 291.247,377.124 290.267 C 377.808 289.588,378.115 288.781,377.807 288.474 C 377.499 288.166,376.940 288.721,376.564 289.707 M311.807 290.750 C 310.045 292.802,308.724 295.000,309.253 295.000 C 309.457 295.000,310.622 293.650,311.842 292.000 C 314.252 288.740,314.230 287.929,311.807 290.750 M328.500 291.000 C 329.495 292.100,330.535 293.000,330.810 293.000 C 331.085 293.000,330.495 292.100,329.500 291.000 C 328.505 289.900,327.465 289.000,327.190 289.000 C 326.915 289.000,327.505 289.900,328.500 291.000 M399.564 295.707 C 399.022 297.132,399.136 297.247,400.124 296.267 C 400.808 295.588,401.115 294.781,400.807 294.474 C 400.499 294.166,399.940 294.721,399.564 295.707 M179.158 299.000 C 179.158 300.375,179.385 300.938,179.662 300.250 C 179.940 299.563,179.940 298.438,179.662 297.750 C 179.385 297.063,179.158 297.625,179.158 299.000 M248.564 298.293 C 248.940 299.279,249.499 299.834,249.807 299.526 C 250.115 299.219,249.808 298.412,249.124 297.733 C 248.136 296.753,248.022 296.868,248.564 298.293 M332.195 299.500 C 332.215 301.150,332.439 301.704,332.693 300.731 C 332.947 299.758,332.930 298.408,332.656 297.731 C 332.382 297.054,332.175 297.850,332.195 299.500 M203.079 299.583 C 203.127 300.748,203.364 300.985,203.683 300.188 C 203.972 299.466,203.936 298.603,203.604 298.271 C 203.272 297.939,203.036 298.529,203.079 299.583 M308.079 299.583 C 308.127 300.748,308.364 300.985,308.683 300.188 C 308.972 299.466,308.936 298.603,308.604 298.271 C 308.272 297.939,308.036 298.529,308.079 299.583 M371.564 299.707 C 371.022 301.132,371.136 301.247,372.124 300.267 C 372.808 299.588,373.115 298.781,372.807 298.474 C 372.499 298.166,371.940 298.721,371.564 299.707 M139.000 299.941 C 139.000 300.459,139.445 301.157,139.989 301.493 C 140.555 301.843,140.723 301.442,140.382 300.552 C 139.717 298.820,139.000 298.503,139.000 299.941 M91.564 302.293 C 91.940 303.279,92.499 303.834,92.807 303.526 C 93.115 303.219,92.808 302.412,92.124 301.733 C 91.136 300.753,91.022 300.868,91.564 302.293 M395.202 305.522 C 394.005 307.985,393.236 310.000,393.493 310.000 C 394.170 310.000,398.211 301.877,397.758 301.425 C 397.549 301.215,396.398 303.059,395.202 305.522 M252.000 304.000 C 252.589 305.100,253.295 306.000,253.570 306.000 C 253.845 306.000,253.589 305.100,253.000 304.000 C 252.411 302.900,251.705 302.000,251.430 302.000 C 251.155 302.000,251.411 302.900,252.000 304.000 M180.040 303.827 C 179.988 305.549,185.451 311.012,187.173 310.960 C 187.903 310.938,187.272 310.254,185.771 309.439 C 184.270 308.624,182.376 306.730,181.561 305.229 C 180.746 303.728,180.062 303.097,180.040 303.827 M376.459 304.067 C 376.096 304.653,376.014 305.348,376.276 305.610 C 376.538 305.872,377.019 305.392,377.345 304.543 C 378.021 302.781,377.445 302.471,376.459 304.067 M177.000 305.378 C 177.000 305.585,177.685 306.324,178.523 307.019 C 179.796 308.076,179.943 308.014,179.416 306.641 C 178.878 305.240,177.000 304.257,177.000 305.378 M333.083 305.283 C 333.313 305.439,334.400 306.226,335.500 307.033 C 337.350 308.390,337.397 308.369,336.128 306.750 C 335.373 305.788,334.285 305.000,333.711 305.000 C 333.137 305.000,332.854 305.127,333.083 305.283 M371.463 312.250 C 369.921 314.588,369.299 315.972,370.080 315.327 C 371.582 314.086,375.411 308.000,374.689 308.000 C 374.456 308.000,373.004 309.913,371.463 312.250 M180.333 310.456 C 180.333 311.257,180.716 311.676,181.183 311.387 C 181.650 311.098,181.774 310.443,181.457 309.931 C 180.649 308.623,180.333 308.770,180.333 310.456 M330.583 309.866 C 330.288 310.343,331.049 311.580,332.274 312.616 C 334.494 314.495,334.495 314.495,332.748 312.419 C 331.784 311.274,331.297 310.037,331.664 309.669 C 332.032 309.301,332.060 309.000,331.726 309.000 C 331.391 309.000,330.877 309.390,330.583 309.866 M340.000 310.378 C 340.000 310.585,340.788 311.373,341.750 312.128 C 343.336 313.371,343.371 313.336,342.128 311.750 C 340.821 310.084,340.000 309.555,340.000 310.378 M189.750 311.662 C 190.438 311.940,191.563 311.940,192.250 311.662 C 192.938 311.385,192.375 311.158,191.000 311.158 C 189.625 311.158,189.063 311.385,189.750 311.662 M319.750 311.662 C 320.438 311.940,321.563 311.940,322.250 311.662 C 322.938 311.385,322.375 311.158,321.000 311.158 C 319.625 311.158,319.063 311.385,319.750 311.662 M310.584 313.641 C 310.036 315.070,310.184 315.107,311.727 313.924 C 312.702 313.177,313.688 312.439,313.917 312.283 C 314.146 312.127,313.631 312.000,312.774 312.000 C 311.916 312.000,310.931 312.739,310.584 313.641 M165.872 314.750 C 164.629 316.336,164.664 316.371,166.250 315.128 C 167.916 313.821,168.445 313.000,167.622 313.000 C 167.415 313.000,166.627 313.788,165.872 314.750 M200.000 313.941 C 200.000 314.459,200.445 315.157,200.989 315.493 C 201.555 315.843,201.723 315.442,201.382 314.552 C 200.717 312.820,200.000 312.503,200.000 313.941 M252.667 316.667 C 252.300 317.033,252.000 328.786,252.000 342.783 C 252.000 367.747,251.962 368.223,249.999 367.710 C 248.898 367.422,248.249 367.595,248.558 368.093 C 248.866 368.592,249.991 369.000,251.059 369.000 C 252.930 369.000,253.000 368.071,253.000 343.070 L 253.000 317.139 255.250 316.706 C 257.337 316.304,257.349 316.262,255.417 316.136 C 254.271 316.061,253.033 316.300,252.667 316.667 M337.000 316.378 C 337.000 316.585,337.788 317.373,338.750 318.128 C 340.336 319.371,340.371 319.336,339.128 317.750 C 337.821 316.084,337.000 315.555,337.000 316.378 M348.500 318.000 C 349.495 319.100,350.535 320.000,350.810 320.000 C 351.085 320.000,350.495 319.100,349.500 318.000 C 348.505 316.900,347.465 316.000,347.190 316.000 C 346.915 316.000,347.505 316.900,348.500 318.000 M123.000 319.000 C 123.589 320.100,124.295 321.000,124.570 321.000 C 124.845 321.000,124.589 320.100,124.000 319.000 C 123.411 317.900,122.705 317.000,122.430 317.000 C 122.155 317.000,122.411 317.900,123.000 319.000 M258.437 343.000 C 258.437 357.575,258.577 363.538,258.747 356.250 C 258.918 348.963,258.918 337.038,258.747 329.750 C 258.577 322.463,258.437 328.425,258.437 343.000 M143.000 318.378 C 143.000 318.585,143.788 319.373,144.750 320.128 C 146.336 321.371,146.371 321.336,145.128 319.750 C 143.821 318.084,143.000 317.555,143.000 318.378 M158.405 321.250 L 156.500 323.500 158.750 321.595 C 159.988 320.547,161.000 319.535,161.000 319.345 C 161.000 318.545,160.195 319.136,158.405 321.250 M168.872 320.750 C 167.629 322.336,167.664 322.371,169.250 321.128 C 170.916 319.821,171.445 319.000,170.622 319.000 C 170.415 319.000,169.627 319.788,168.872 320.750 M386.564 320.707 C 386.022 322.132,386.136 322.247,387.124 321.267 C 387.808 320.588,388.115 319.781,387.807 319.474 C 387.499 319.166,386.940 319.721,386.564 320.707 M409.500 322.000 C 408.647 323.650,408.174 325.000,408.449 325.000 C 408.724 325.000,409.647 323.650,410.500 322.000 C 411.353 320.350,411.826 319.000,411.551 319.000 C 411.276 319.000,410.353 320.350,409.500 322.000 M101.000 322.000 C 101.589 323.100,102.295 324.000,102.570 324.000 C 102.845 324.000,102.589 323.100,102.000 322.000 C 101.411 320.900,100.705 320.000,100.430 320.000 C 100.155 320.000,100.411 320.900,101.000 322.000 M153.000 320.378 C 153.000 320.585,153.788 321.373,154.750 322.128 C 156.336 323.371,156.371 323.336,155.128 321.750 C 153.821 320.084,153.000 319.555,153.000 320.378 M198.080 323.000 C 199.538 326.061,200.000 326.628,200.000 325.358 C 200.000 324.821,199.300 323.509,198.445 322.441 C 196.978 320.611,196.958 320.643,198.080 323.000 M305.564 322.707 C 305.022 324.132,305.136 324.247,306.124 323.267 C 306.808 322.588,307.115 321.781,306.807 321.474 C 306.499 321.166,305.940 321.721,305.564 322.707 M205.000 322.941 C 205.000 323.459,205.445 324.157,205.989 324.493 C 206.555 324.843,206.723 324.442,206.382 323.552 C 205.717 321.820,205.000 321.503,205.000 322.941 M312.459 323.067 C 312.096 323.653,312.014 324.348,312.276 324.610 C 312.538 324.872,313.019 324.392,313.345 323.543 C 314.021 321.781,313.445 321.471,312.459 323.067 M344.000 322.378 C 344.000 322.585,344.788 323.373,345.750 324.128 C 347.336 325.371,347.371 325.336,346.128 323.750 C 344.821 322.084,344.000 321.555,344.000 322.378 M383.980 324.524 C 383.284 325.362,382.909 326.242,383.145 326.479 C 383.382 326.715,384.125 326.030,384.796 324.955 C 386.248 322.630,385.764 322.375,383.980 324.524 M161.872 326.750 C 160.629 328.336,160.664 328.371,162.250 327.128 C 163.213 326.373,164.000 325.585,164.000 325.378 C 164.000 324.555,163.179 325.084,161.872 326.750 M360.872 326.750 C 359.629 328.336,359.664 328.371,361.250 327.128 C 362.213 326.373,363.000 325.585,363.000 325.378 C 363.000 324.555,362.179 325.084,360.872 326.750 M302.564 327.707 C 302.022 329.132,302.136 329.247,303.124 328.267 C 303.808 327.588,304.115 326.781,303.807 326.474 C 303.499 326.166,302.940 326.721,302.564 327.707 M349.466 326.836 C 349.948 327.686,349.007 329.507,346.882 331.836 L 343.538 335.500 347.486 331.767 C 350.771 328.660,351.205 327.821,350.070 326.767 C 348.964 325.739,348.850 325.752,349.466 326.836 M208.000 327.941 C 208.000 328.459,208.445 329.157,208.989 329.493 C 209.555 329.843,209.723 329.442,209.382 328.552 C 208.717 326.820,208.000 326.503,208.000 327.941 M158.000 335.500 C 160.987 338.525,163.657 341.000,163.932 341.000 C 164.207 341.000,161.987 338.525,159.000 335.500 C 156.013 332.475,153.343 330.000,153.068 330.000 C 152.793 330.000,155.013 332.475,158.000 335.500 M378.872 331.750 C 377.629 333.336,377.664 333.371,379.250 332.128 C 380.916 330.821,381.445 330.000,380.622 330.000 C 380.415 330.000,379.627 330.788,378.872 331.750 M375.405 336.250 L 373.500 338.500 375.750 336.595 C 377.864 334.805,378.455 334.000,377.655 334.000 C 377.465 334.000,376.453 335.013,375.405 336.250 M350.872 336.750 C 349.629 338.336,349.664 338.371,351.250 337.128 C 352.916 335.821,353.445 335.000,352.622 335.000 C 352.415 335.000,351.627 335.788,350.872 336.750 M169.000 336.378 C 169.000 336.585,169.788 337.373,170.750 338.128 C 172.336 339.371,172.371 339.336,171.128 337.750 C 169.821 336.084,169.000 335.555,169.000 336.378 M111.000 338.378 C 111.000 338.585,111.788 339.373,112.750 340.128 C 114.336 341.371,114.371 341.336,113.128 339.750 C 111.821 338.084,111.000 337.555,111.000 338.378 M294.459 339.067 C 294.096 339.653,294.014 340.348,294.276 340.610 C 294.538 340.872,295.019 340.392,295.345 339.543 C 296.021 337.781,295.445 337.471,294.459 339.067 M337.872 339.750 C 336.629 341.336,336.664 341.371,338.250 340.128 C 339.213 339.373,340.000 338.585,340.000 338.378 C 340.000 337.555,339.179 338.084,337.872 339.750 M142.500 344.000 C 144.648 346.200,146.631 348.000,146.906 348.000 C 147.181 348.000,145.648 346.200,143.500 344.000 C 141.352 341.800,139.369 340.000,139.094 340.000 C 138.819 340.000,140.352 341.800,142.500 344.000 M344.872 342.750 C 343.629 344.336,343.664 344.371,345.250 343.128 C 346.213 342.373,347.000 341.585,347.000 341.378 C 347.000 340.555,346.179 341.084,344.872 342.750 M114.000 342.378 C 114.000 342.585,114.788 343.373,115.750 344.128 C 117.336 345.371,117.371 345.336,116.128 343.750 C 114.821 342.084,114.000 341.555,114.000 342.378 M332.872 343.750 C 331.629 345.336,331.664 345.371,333.250 344.128 C 334.213 343.373,335.000 342.585,335.000 342.378 C 335.000 341.555,334.179 342.084,332.872 343.750 M220.000 344.378 C 220.000 344.585,220.788 345.373,221.750 346.128 C 223.336 347.371,223.371 347.336,222.128 345.750 C 220.821 344.084,220.000 343.555,220.000 344.378 M393.872 345.750 C 392.629 347.336,392.664 347.371,394.250 346.128 C 395.213 345.373,396.000 344.585,396.000 344.378 C 396.000 343.555,395.179 344.084,393.872 345.750 M296.872 346.750 C 295.629 348.336,295.664 348.371,297.250 347.128 C 298.916 345.821,299.445 345.000,298.622 345.000 C 298.415 345.000,297.627 345.788,296.872 346.750 M363.946 348.750 L 360.500 352.500 364.250 349.054 C 366.313 347.158,368.000 345.471,368.000 345.304 C 368.000 344.540,367.154 345.260,363.946 348.750 M214.000 347.378 C 214.000 347.585,214.788 348.373,215.750 349.128 C 217.336 350.371,217.371 350.336,216.128 348.750 C 214.821 347.084,214.000 346.555,214.000 347.378 M223.000 348.378 C 223.000 348.585,223.788 349.373,224.750 350.128 C 226.336 351.371,226.371 351.336,225.128 349.750 C 223.821 348.084,223.000 347.555,223.000 348.378 M151.000 352.500 C 152.866 354.425,154.617 356.000,154.892 356.000 C 155.167 356.000,153.866 354.425,152.000 352.500 C 150.134 350.575,148.383 349.000,148.108 349.000 C 147.833 349.000,149.134 350.575,151.000 352.500 M282.453 353.250 L 278.500 357.500 282.750 353.547 C 286.702 349.871,287.460 349.000,286.703 349.000 C 286.540 349.000,284.627 350.913,282.453 353.250 M323.000 350.000 C 322.099 350.582,321.975 350.975,322.691 350.985 C 323.346 350.993,324.160 350.550,324.500 350.000 C 325.267 348.758,324.921 348.758,323.000 350.000 M389.405 351.250 L 387.500 353.500 389.750 351.595 C 391.864 349.805,392.455 349.000,391.655 349.000 C 391.465 349.000,390.453 350.013,389.405 351.250 M188.733 351.124 C 189.412 351.808,190.219 352.115,190.526 351.807 C 190.834 351.499,190.279 350.940,189.293 350.564 C 187.868 350.022,187.753 350.136,188.733 351.124 M287.469 357.250 L 281.500 363.500 287.750 357.531 C 293.556 351.987,294.458 351.000,293.719 351.000 C 293.564 351.000,290.751 353.813,287.469 357.250 M122.000 352.378 C 122.000 352.585,122.788 353.373,123.750 354.128 C 125.336 355.371,125.371 355.336,124.128 353.750 C 122.821 352.084,122.000 351.555,122.000 352.378 M314.000 355.000 C 312.075 356.054,310.860 356.935,311.300 356.958 C 312.359 357.014,318.000 354.081,318.000 353.474 C 318.000 352.820,317.941 352.842,314.000 355.000 M182.000 354.430 C 182.000 354.705,182.900 355.411,184.000 356.000 C 185.100 356.589,186.000 356.845,186.000 356.570 C 186.000 356.295,185.100 355.589,184.000 355.000 C 182.900 354.411,182.000 354.155,182.000 354.430 M384.405 357.250 L 382.500 359.500 384.750 357.595 C 386.864 355.805,387.455 355.000,386.655 355.000 C 386.465 355.000,385.453 356.013,384.405 357.250 M127.500 358.000 C 128.495 359.100,129.535 360.000,129.810 360.000 C 130.085 360.000,129.495 359.100,128.500 358.000 C 127.505 356.900,126.465 356.000,126.190 356.000 C 125.915 356.000,126.505 356.900,127.500 358.000 M321.441 358.555 C 319.611 360.022,319.643 360.042,322.000 358.920 C 325.061 357.462,325.628 357.000,324.358 357.000 C 323.821 357.000,322.509 357.700,321.441 358.555 M204.733 359.124 C 205.412 359.808,206.219 360.115,206.526 359.807 C 206.834 359.499,206.279 358.940,205.293 358.564 C 203.868 358.022,203.753 358.136,204.733 359.124 M234.000 358.378 C 234.000 358.585,234.788 359.373,235.750 360.128 C 237.336 361.371,237.371 361.336,236.128 359.750 C 234.821 358.084,234.000 357.555,234.000 358.378 M159.000 359.378 C 159.000 359.585,159.788 360.373,160.750 361.128 C 162.336 362.371,162.371 362.336,161.128 360.750 C 159.821 359.084,159.000 358.555,159.000 359.378 M303.000 360.000 C 302.099 360.582,301.975 360.975,302.691 360.985 C 303.346 360.993,304.160 360.550,304.500 360.000 C 305.267 358.758,304.921 358.758,303.000 360.000 M192.083 360.365 C 192.313 360.565,193.625 361.265,195.000 361.920 C 197.357 363.042,197.389 363.022,195.559 361.555 C 193.966 360.279,190.711 359.164,192.083 360.365 M310.507 363.989 C 310.157 364.555,310.558 364.723,311.448 364.382 C 313.180 363.717,313.497 363.000,312.059 363.000 C 311.541 363.000,310.843 363.445,310.507 363.989 M345.872 364.750 C 344.629 366.336,344.664 366.371,346.250 365.128 C 347.213 364.373,348.000 363.585,348.000 363.378 C 348.000 362.555,347.179 363.084,345.872 364.750 M165.000 364.378 C 165.000 364.585,165.788 365.373,166.750 366.128 C 168.336 367.371,168.371 367.336,167.128 365.750 C 165.821 364.084,165.000 363.555,165.000 364.378 M203.000 365.393 C 203.000 365.609,203.698 366.054,204.552 366.382 C 205.442 366.723,205.843 366.555,205.493 365.989 C 204.906 365.038,203.000 364.583,203.000 365.393 M276.559 366.532 C 274.986 367.721,274.918 368.000,276.202 368.000 C 277.073 368.000,278.045 367.325,278.362 366.500 C 279.059 364.683,279.002 364.684,276.559 366.532 M341.872 367.750 C 340.629 369.336,340.664 369.371,342.250 368.128 C 343.213 367.373,344.000 366.585,344.000 366.378 C 344.000 365.555,343.179 366.084,341.872 367.750 M137.000 367.378 C 137.000 367.585,137.788 368.373,138.750 369.128 C 140.336 370.371,140.371 370.336,139.128 368.750 C 137.821 367.084,137.000 366.555,137.000 367.378 M169.000 367.378 C 169.000 367.585,169.788 368.373,170.750 369.128 C 172.336 370.371,172.371 370.336,171.128 368.750 C 169.821 367.084,169.000 366.555,169.000 367.378 M371.924 369.750 L 369.500 372.500 372.250 370.076 C 374.820 367.810,375.459 367.000,374.674 367.000 C 374.495 367.000,373.258 368.238,371.924 369.750 M141.000 371.378 C 141.000 371.585,141.788 372.373,142.750 373.128 C 144.336 374.371,144.371 374.336,143.128 372.750 C 141.821 371.084,141.000 370.555,141.000 371.378 M220.813 371.683 C 221.534 371.972,222.397 371.936,222.729 371.604 C 223.061 371.272,222.471 371.036,221.417 371.079 C 220.252 371.127,220.015 371.364,220.813 371.683 M284.813 372.683 C 285.534 372.972,286.397 372.936,286.729 372.604 C 287.061 372.272,286.471 372.036,285.417 372.079 C 284.252 372.127,284.015 372.364,284.813 372.683 M229.813 373.683 C 230.534 373.972,231.397 373.936,231.729 373.604 C 232.061 373.272,231.471 373.036,230.417 373.079 C 229.252 373.127,229.015 373.364,229.813 373.683 M364.924 375.750 L 362.500 378.500 365.250 376.076 C 366.763 374.742,368.000 373.505,368.000 373.326 C 368.000 372.541,367.190 373.180,364.924 375.750 M242.813 375.683 C 243.534 375.972,244.397 375.936,244.729 375.604 C 245.061 375.272,244.471 375.036,243.417 375.079 C 242.252 375.127,242.015 375.364,242.813 375.683 M267.813 375.683 C 268.534 375.972,269.397 375.936,269.729 375.604 C 270.061 375.272,269.471 375.036,268.417 375.079 C 267.252 375.127,267.015 375.364,267.813 375.683 M252.370 386.000 C 252.370 391.775,252.535 394.138,252.737 391.250 C 252.939 388.363,252.939 383.638,252.737 380.750 C 252.535 377.863,252.370 380.225,252.370 386.000 M258.343 383.500 C 258.346 387.900,258.522 389.576,258.733 387.224 C 258.945 384.872,258.942 381.272,258.727 379.224 C 258.512 377.176,258.339 379.100,258.343 383.500 M319.000 383.000 C 318.099 383.582,317.975 383.975,318.691 383.985 C 319.346 383.993,320.160 383.550,320.500 383.000 C 321.267 381.758,320.921 381.758,319.000 383.000 M353.872 384.750 C 352.629 386.336,352.664 386.371,354.250 385.128 C 355.916 383.821,356.445 383.000,355.622 383.000 C 355.415 383.000,354.627 383.788,353.872 384.750 M157.000 384.378 C 157.000 384.585,157.788 385.373,158.750 386.128 C 160.336 387.371,160.371 387.336,159.128 385.750 C 157.821 384.084,157.000 383.555,157.000 384.378 M194.733 385.124 C 195.412 385.808,196.219 386.115,196.526 385.807 C 196.834 385.499,196.279 384.940,195.293 384.564 C 193.868 384.022,193.753 384.136,194.733 385.124 M209.441 393.445 C 210.509 394.300,211.821 395.000,212.358 395.000 C 213.628 395.000,213.061 394.538,210.000 393.080 C 207.643 391.958,207.611 391.978,209.441 393.445 M296.750 395.572 C 293.012 397.600,293.239 398.445,297.000 396.500 C 298.650 395.647,300.000 394.735,300.000 394.474 C 300.000 393.831,299.893 393.867,296.750 395.572 M254.813 395.683 C 255.534 395.972,256.397 395.936,256.729 395.604 C 257.061 395.272,256.471 395.036,255.417 395.079 C 254.252 395.127,254.015 395.364,254.813 395.683 M175.000 397.393 C 175.000 397.609,175.698 398.054,176.552 398.382 C 177.442 398.723,177.843 398.555,177.493 397.989 C 176.906 397.038,175.000 396.583,175.000 397.393 M288.000 400.000 C 286.075 401.054,284.950 401.916,285.500 401.916 C 286.050 401.916,288.075 401.054,290.000 400.000 C 291.925 398.946,293.050 398.084,292.500 398.084 C 291.950 398.084,289.925 398.946,288.000 400.000 M329.507 400.989 C 329.157 401.555,329.558 401.723,330.448 401.382 C 332.180 400.717,332.497 400.000,331.059 400.000 C 330.541 400.000,329.843 400.445,329.507 400.989 M225.000 401.393 C 225.000 401.609,225.698 402.054,226.552 402.382 C 227.442 402.723,227.843 402.555,227.493 401.989 C 226.906 401.038,225.000 400.583,225.000 401.393 M253.762 403.707 C 255.006 403.946,256.806 403.937,257.762 403.687 C 258.718 403.437,257.700 403.241,255.500 403.252 C 253.300 403.263,252.518 403.468,253.762 403.707 M187.000 404.430 C 187.000 404.705,187.900 405.411,189.000 406.000 C 190.100 406.589,191.000 406.845,191.000 406.570 C 191.000 406.295,190.100 405.589,189.000 405.000 C 187.900 404.411,187.000 404.155,187.000 404.430 M233.162 407.543 C 231.487 411.220,231.807 412.005,233.618 408.662 C 234.464 407.100,234.969 405.636,234.741 405.407 C 234.512 405.179,233.802 406.140,233.162 407.543 M319.507 406.989 C 319.157 407.555,319.558 407.723,320.448 407.382 C 322.180 406.717,322.497 406.000,321.059 406.000 C 320.541 406.000,319.843 406.445,319.507 406.989 M242.872 408.750 C 241.629 410.336,241.664 410.371,243.250 409.128 C 244.213 408.373,245.000 407.585,245.000 407.378 C 245.000 406.555,244.179 407.084,242.872 408.750 M193.083 408.365 C 193.313 408.565,194.625 409.265,196.000 409.920 C 198.357 411.042,198.389 411.022,196.559 409.555 C 194.966 408.279,191.711 407.164,193.083 408.365 M278.031 408.500 C 278.031 409.050,278.467 410.175,279.000 411.000 C 279.533 411.825,279.969 412.050,279.969 411.500 C 279.969 410.950,279.533 409.825,279.000 409.000 C 278.467 408.175,278.031 407.950,278.031 408.500 M311.441 411.555 C 309.577 413.049,309.589 413.067,311.750 412.020 C 312.988 411.420,314.000 410.720,314.000 410.465 C 314.000 409.700,313.481 409.921,311.441 411.555 M270.031 411.500 C 270.031 412.050,270.467 413.175,271.000 414.000 C 271.533 414.825,271.969 415.050,271.969 414.500 C 271.969 413.950,271.533 412.825,271.000 412.000 C 270.467 411.175,270.031 410.950,270.031 411.500 M230.158 420.000 C 230.158 421.375,230.385 421.938,230.662 421.250 C 230.940 420.563,230.940 419.438,230.662 418.750 C 230.385 418.063,230.158 418.625,230.158 420.000 M238.158 421.000 C 238.158 422.375,238.385 422.938,238.662 422.250 C 238.940 421.563,238.940 420.438,238.662 419.750 C 238.385 419.063,238.158 419.625,238.158 421.000 M291.441 421.555 C 289.611 423.022,289.643 423.042,292.000 421.920 C 295.061 420.462,295.628 420.000,294.358 420.000 C 293.821 420.000,292.509 420.700,291.441 421.555 M229.211 424.601 C 228.501 425.370,228.362 426.000,228.902 426.000 C 229.940 426.000,231.443 424.098,230.850 423.534 C 230.658 423.351,229.920 423.831,229.211 424.601 M241.000 430.000 C 241.589 431.100,242.295 432.000,242.570 432.000 C 242.845 432.000,242.589 431.100,242.000 430.000 C 241.411 428.900,240.705 428.000,240.430 428.000 C 240.155 428.000,240.411 428.900,241.000 430.000 " stroke="none" fill="#64748b" fill-rule="evenodd"/></svg>